<svg width="600" height="400" viewBox="0 0 600 400" xmlns="http://www.w3.org/2000/svg">
  <defs>
    <linearGradient id="grad3" x1="0%" y1="0%" x2="100%" y2="100%">
      <stop offset="0%" style="stop-color:#6056e0;stop-opacity:0.2" />
      <stop offset="100%" style="stop-color:#8056a0;stop-opacity:0.15" />
    </linearGradient>
    <linearGradient id="bar" x1="0%" y1="0%" x2="100%" y2="0%">
      <stop offset="0%" style="stop-color:#6056e0;stop-opacity:1" />
      <stop offset="100%" style="stop-color:#8056e0;stop-opacity:0.7" />
    </linearGradient>
  </defs>
  <rect width="600" height="400" fill="#1a1625"/>
  <rect x="30" y="30" width="540" height="340" rx="12" fill="url(#grad3)" stroke="#6056e0" stroke-opacity="0.3"/>
  <!-- Distribution channels mockup -->
  <text x="50" y="70" font-family="system-ui" font-size="14" fill="#6056e0" fill-opacity="0.8">Distribution Channels</text>

  <!-- Channel bars -->
  <text x="50" y="115" font-family="system-ui" font-size="11" fill="#888">Organic Search</text>
  <rect x="160" y="100" width="320" height="20" rx="4" fill="#2a2435"/>
  <rect x="160" y="100" width="280" height="20" rx="4" fill="url(#bar)"/>
  <text x="450" y="115" font-family="system-ui" font-size="11" fill="#fff">42%</text>

  <text x="50" y="155" font-family="system-ui" font-size="11" fill="#888">Paid Acquisition</text>
  <rect x="160" y="140" width="320" height="20" rx="4" fill="#2a2435"/>
  <rect x="160" y="140" width="200" height="20" rx="4" fill="url(#bar)" fill-opacity="0.8"/>
  <text x="370" y="155" font-family="system-ui" font-size="11" fill="#fff">28%</text>

  <text x="50" y="195" font-family="system-ui" font-size="11" fill="#888">Partnerships</text>
  <rect x="160" y="180" width="320" height="20" rx="4" fill="#2a2435"/>
  <rect x="160" y="180" width="140" height="20" rx="4" fill="url(#bar)" fill-opacity="0.6"/>
  <text x="310" y="195" font-family="system-ui" font-size="11" fill="#fff">18%</text>

  <text x="50" y="235" font-family="system-ui" font-size="11" fill="#888">Referrals</text>
  <rect x="160" y="220" width="320" height="20" rx="4" fill="#2a2435"/>
  <rect x="160" y="220" width="90" height="20" rx="4" fill="url(#bar)" fill-opacity="0.5"/>
  <text x="260" y="235" font-family="system-ui" font-size="11" fill="#fff">12%</text>

  <!-- Summary cards -->
  <rect x="50" y="270" width="160" height="90" rx="8" fill="#2a2435" stroke="#6056e0" stroke-opacity="0.2"/>
  <text x="70" y="300" font-family="system-ui" font-size="10" fill="#666">Total Reach</text>
  <text x="70" y="330" font-family="system-ui" font-size="22" fill="#fff">1.2M</text>

  <rect x="230" y="270" width="160" height="90" rx="8" fill="#2a2435" stroke="#6056e0" stroke-opacity="0.2"/>
  <text x="250" y="300" font-family="system-ui" font-size="10" fill="#666">Conversion</text>
  <text x="250" y="330" font-family="system-ui" font-size="22" fill="#fff">4.8%</text>

  <rect x="410" y="270" width="140" height="90" rx="8" fill="#2a2435" stroke="#6056e0" stroke-opacity="0.2"/>
  <text x="430" y="300" font-family="system-ui" font-size="10" fill="#666">CAC</text>
  <text x="430" y="330" font-family="system-ui" font-size="22" fill="#fff">$24</text>
</svg>