<svg width="600" height="400" viewBox="0 0 600 400" xmlns="http://www.w3.org/2000/svg">
  <defs>
    <linearGradient id="abt2-bg" x1="0%" y1="0%" x2="100%" y2="100%">
      <stop offset="0%" style="stop-color:#0f0a1a;stop-opacity:1" />
      <stop offset="100%" style="stop-color:#1a0f2e;stop-opacity:1" />
    </linearGradient>
  </defs>
  <rect width="600" height="400" fill="url(#abt2-bg)"/>

  <text x="300" y="36" font-family="ui-monospace, monospace" font-size="11" fill="#a855f7" text-anchor="middle" font-weight="500">TECHNOLOGY-FORWARD EXECUTION</text>

  <!-- Tech stack -->
  <rect x="35" y="56" width="280" height="194" rx="10" fill="#1a0f2e" stroke="#a855f7" stroke-opacity="0.2"/>
  <text x="55" y="82" font-family="system-ui" font-size="10" fill="#71717a">Internal Tooling Stack</text>
  <rect x="55" y="92" width="240" height="1" fill="#a855f7" fill-opacity="0.1"/>

  <rect x="55" y="108" width="240" height="40" rx="6" fill="#a855f7" fill-opacity="0.1" stroke="#a855f7" stroke-opacity="0.2"/>
  <text x="75" y="132" font-family="system-ui" font-size="9" fill="#a855f7">AI/ML Pipeline</text>
  <text x="175" y="132" font-family="system-ui" font-size="8" fill="#71717a">GPT-4, Claude, Custom</text>

  <rect x="55" y="158" width="240" height="40" rx="6" fill="#22c55e" fill-opacity="0.08" stroke="#22c55e" stroke-opacity="0.2"/>
  <text x="75" y="182" font-family="system-ui" font-size="9" fill="#22c55e">Automation Layer</text>
  <text x="185" y="182" font-family="system-ui" font-size="8" fill="#71717a">n8n, Zapier, Custom</text>

  <rect x="55" y="208" width="240" height="40" rx="6" fill="#06b6d4" fill-opacity="0.08" stroke="#06b6d4" stroke-opacity="0.2"/>
  <text x="75" y="232" font-family="system-ui" font-size="9" fill="#06b6d4">Analytics & BI</text>
  <text x="175" y="232" font-family="system-ui" font-size="8" fill="#71717a">Custom dashboards</text>

  <!-- Time compression -->
  <rect x="335" y="56" width="230" height="194" rx="10" fill="#1a0f2e" stroke="#22c55e" stroke-opacity="0.25"/>
  <text x="355" y="82" font-family="system-ui" font-size="10" fill="#22c55e">Time Compression</text>
  <rect x="355" y="92" width="190" height="1" fill="#22c55e" fill-opacity="0.1"/>

  <text x="355" y="118" font-family="system-ui" font-size="9" fill="#71717a">Manual process:</text>
  <rect x="355" y="128" width="180" height="24" rx="4" fill="#ef4444" fill-opacity="0.15"/>
  <text x="425" y="144" font-family="system-ui" font-size="9" fill="#ef4444">4 hours/day</text>

  <text x="355" y="172" font-family="system-ui" font-size="9" fill="#71717a">With automation:</text>
  <rect x="355" y="182" width="60" height="24" rx="4" fill="#22c55e" fill-opacity="0.2"/>
  <text x="370" y="198" font-family="system-ui" font-size="9" fill="#22c55e">15 min</text>

  <text x="355" y="235" font-family="ui-monospace, monospace" font-size="20" fill="#ffffff">16x</text>
  <text x="405" y="235" font-family="system-ui" font-size="10" fill="#71717a">faster execution</text>

  <!-- Bottom stats -->
  <rect x="35" y="270" width="170" height="100" rx="10" fill="#1a0f2e" stroke="#a855f7" stroke-opacity="0.15"/>
  <text x="55" y="300" font-family="system-ui" font-size="9" fill="#71717a">Workflows automated</text>
  <text x="55" y="340" font-family="ui-monospace, monospace" font-size="28" fill="#a855f7">200+</text>

  <rect x="215" y="270" width="170" height="100" rx="10" fill="#1a0f2e" stroke="#22c55e" stroke-opacity="0.15"/>
  <text x="235" y="300" font-family="system-ui" font-size="9" fill="#71717a">Hours saved/month</text>
  <text x="235" y="340" font-family="ui-monospace, monospace" font-size="28" fill="#22c55e">400+</text>

  <rect x="395" y="270" width="170" height="100" rx="10" fill="#1a0f2e" stroke="#a855f7" stroke-opacity="0.15"/>
  <text x="415" y="300" font-family="system-ui" font-size="9" fill="#71717a">Error reduction</text>
  <text x="415" y="340" font-family="ui-monospace, monospace" font-size="28" fill="#ffffff">92%</text>
</svg>
