<svg width="600" height="400" viewBox="0 0 600 400" xmlns="http://www.w3.org/2000/svg">
  <defs>
    <linearGradient id="abt1-bg" x1="0%" y1="0%" x2="100%" y2="100%">
      <stop offset="0%" style="stop-color:#0f0a1a;stop-opacity:1" />
      <stop offset="100%" style="stop-color:#1a0f2e;stop-opacity:1" />
    </linearGradient>
  </defs>
  <rect width="600" height="400" fill="url(#abt1-bg)"/>

  <text x="300" y="36" font-family="ui-monospace, monospace" font-size="11" fill="#a855f7" text-anchor="middle" font-weight="500">OPERATOR MINDSET</text>

  <!-- Three principle cards -->
  <rect x="35" y="56" width="170" height="150" rx="10" fill="#1a0f2e" stroke="#a855f7" stroke-opacity="0.4"/>
  <rect x="35" y="56" width="170" height="6" rx="10" fill="#a855f7" fill-opacity="0.6"/>
  <text x="120" y="88" font-family="system-ui" font-size="12" fill="#a855f7" text-anchor="middle" font-weight="500">Systems</text>
  <text x="120" y="115" font-family="system-ui" font-size="8" fill="#71717a" text-anchor="middle">Build once,</text>
  <text x="120" y="130" font-family="system-ui" font-size="8" fill="#71717a" text-anchor="middle">leverage forever</text>
  <rect x="55" y="150" width="130" height="28" rx="6" fill="#a855f7" fill-opacity="0.1"/>
  <text x="120" y="169" font-family="system-ui" font-size="9" fill="#a855f7" text-anchor="middle">Foundation</text>

  <rect x="215" y="56" width="170" height="150" rx="10" fill="#1a0f2e" stroke="#22c55e" stroke-opacity="0.4"/>
  <rect x="215" y="56" width="170" height="6" rx="10" fill="#22c55e" fill-opacity="0.6"/>
  <text x="300" y="88" font-family="system-ui" font-size="12" fill="#22c55e" text-anchor="middle" font-weight="500">Incentives</text>
  <text x="300" y="115" font-family="system-ui" font-size="8" fill="#71717a" text-anchor="middle">Align interests,</text>
  <text x="300" y="130" font-family="system-ui" font-size="8" fill="#71717a" text-anchor="middle">align outcomes</text>
  <rect x="235" y="150" width="130" height="28" rx="6" fill="#22c55e" fill-opacity="0.1"/>
  <text x="300" y="169" font-family="system-ui" font-size="9" fill="#22c55e" text-anchor="middle">Alignment</text>

  <rect x="395" y="56" width="170" height="150" rx="10" fill="#1a0f2e" stroke="#eab308" stroke-opacity="0.4"/>
  <rect x="395" y="56" width="170" height="6" rx="10" fill="#eab308" fill-opacity="0.6"/>
  <text x="480" y="88" font-family="system-ui" font-size="12" fill="#eab308" text-anchor="middle" font-weight="500">Execution</text>
  <text x="480" y="115" font-family="system-ui" font-size="8" fill="#71717a" text-anchor="middle">Ship > theorize</text>
  <text x="480" y="130" font-family="system-ui" font-size="8" fill="#71717a" text-anchor="middle">Iterate fast</text>
  <rect x="415" y="150" width="130" height="28" rx="6" fill="#eab308" fill-opacity="0.1"/>
  <text x="480" y="169" font-family="system-ui" font-size="9" fill="#eab308" text-anchor="middle">Action</text>

  <!-- Bottom - what we optimize for -->
  <rect x="35" y="226" width="530" height="144" rx="10" fill="#1a0f2e" stroke="#a855f7" stroke-opacity="0.15"/>
  <text x="55" y="254" font-family="system-ui" font-size="10" fill="#71717a">What We Optimize For vs. Against</text>
  <rect x="55" y="264" width="490" height="1" fill="#a855f7" fill-opacity="0.1"/>

  <rect x="55" y="280" width="235" height="70" rx="8" fill="#22c55e" fill-opacity="0.08" stroke="#22c55e" stroke-opacity="0.2"/>
  <text x="75" y="308" font-family="system-ui" font-size="10" fill="#22c55e">Durable value creation</text>
  <text x="75" y="330" font-family="system-ui" font-size="8" fill="#71717a">Long-term sustainable growth</text>

  <rect x="310" y="280" width="235" height="70" rx="8" fill="#ef4444" fill-opacity="0.08" stroke="#ef4444" stroke-opacity="0.2"/>
  <text x="330" y="308" font-family="system-ui" font-size="10" fill="#ef4444">Vanity & noise</text>
  <text x="330" y="330" font-family="system-ui" font-size="8" fill="#71717a">No hype, no theater</text>
</svg>
