<svg width="600" height="400" viewBox="0 0 600 400" xmlns="http://www.w3.org/2000/svg">
  <defs>
    <linearGradient id="adv1-bg" x1="0%" y1="0%" x2="100%" y2="100%">
      <stop offset="0%" style="stop-color:#0f0a1a;stop-opacity:1" />
      <stop offset="100%" style="stop-color:#1a0f2e;stop-opacity:1" />
    </linearGradient>
  </defs>
  <rect width="600" height="400" fill="url(#adv1-bg)"/>

  <text x="300" y="36" font-family="ui-monospace, monospace" font-size="11" fill="#a855f7" text-anchor="middle" font-weight="500">WEEKLY OPERATOR SYNC</text>

  <!-- Video call mockup -->
  <rect x="35" y="56" width="320" height="200" rx="10" fill="#1a0f2e" stroke="#a855f7" stroke-opacity="0.2"/>

  <!-- Participant grid -->
  <rect x="45" y="66" width="145" height="90" rx="6" fill="#12081f" stroke="#a855f7" stroke-opacity="0.1"/>
  <circle cx="117" cy="100" r="22" fill="#a855f7" fill-opacity="0.2"/>
  <text x="117" y="105" font-family="system-ui" font-size="10" fill="#a855f7" text-anchor="middle">You</text>
  <rect x="70" y="140" width="90" height="6" rx="2" fill="#22c55e" fill-opacity="0.4"/>

  <rect x="200" y="66" width="145" height="90" rx="6" fill="#12081f" stroke="#a855f7" stroke-opacity="0.1"/>
  <circle cx="272" cy="100" r="22" fill="#8b5cf6" fill-opacity="0.2"/>
  <text x="272" y="105" font-family="system-ui" font-size="10" fill="#8b5cf6" text-anchor="middle">ALV</text>
  <rect x="225" y="140" width="90" height="6" rx="2" fill="#22c55e" fill-opacity="0.4"/>

  <!-- Agenda section -->
  <rect x="45" y="166" width="300" height="80" rx="6" fill="#12081f"/>
  <text x="60" y="186" font-family="system-ui" font-size="9" fill="#71717a">Today's Agenda</text>
  <text x="60" y="206" font-family="system-ui" font-size="8" fill="#d4d4d8">1. Review blockers & decisions</text>
  <text x="60" y="222" font-family="system-ui" font-size="8" fill="#d4d4d8">2. KPI walkthrough</text>
  <text x="60" y="238" font-family="system-ui" font-size="8" fill="#52525b">3. Next week priorities</text>
  <circle cx="300" cy="206" r="4" fill="#22c55e"/>
  <circle cx="300" cy="222" r="4" fill="#a855f7"/>
  <circle cx="300" cy="238" r="4" fill="#52525b"/>

  <!-- Notes panel -->
  <rect x="375" y="56" width="190" height="200" rx="10" fill="#1a0f2e" stroke="#a855f7" stroke-opacity="0.15"/>
  <text x="395" y="82" font-family="system-ui" font-size="10" fill="#71717a">Live Notes</text>
  <rect x="395" y="92" width="150" height="1" fill="#a855f7" fill-opacity="0.1"/>

  <text x="395" y="115" font-family="system-ui" font-size="8" fill="#a855f7">Decisions:</text>
  <text x="395" y="133" font-family="system-ui" font-size="7" fill="#d4d4d8">Proceed with v2 launch</text>
  <text x="395" y="148" font-family="system-ui" font-size="7" fill="#d4d4d8">Delay hiring 2 weeks</text>

  <text x="395" y="172" font-family="system-ui" font-size="8" fill="#eab308">Blockers:</text>
  <text x="395" y="190" font-family="system-ui" font-size="7" fill="#d4d4d8">Awaiting legal review</text>

  <text x="395" y="214" font-family="system-ui" font-size="8" fill="#22c55e">Actions:</text>
  <text x="395" y="232" font-family="system-ui" font-size="7" fill="#d4d4d8">Ship fix by Thursday</text>

  <!-- Bottom tags -->
  <rect x="35" y="276" width="530" height="94" rx="10" fill="#1a0f2e" stroke="#a855f7" stroke-opacity="0.1"/>

  <rect x="55" y="296" width="100" height="32" rx="6" fill="#a855f7" fill-opacity="0.1"/>
  <text x="80" y="316" font-family="system-ui" font-size="9" fill="#a855f7">60 min weekly</text>

  <rect x="175" y="296" width="120" height="32" rx="6" fill="#22c55e" fill-opacity="0.08"/>
  <text x="200" y="316" font-family="system-ui" font-size="9" fill="#22c55e">Structured format</text>

  <rect x="315" y="296" width="100" height="32" rx="6" fill="#eab308" fill-opacity="0.08"/>
  <text x="340" y="316" font-family="system-ui" font-size="9" fill="#eab308">Action-driven</text>

  <rect x="435" y="296" width="110" height="32" rx="6" fill="#a855f7" fill-opacity="0.05"/>
  <text x="460" y="316" font-family="system-ui" font-size="9" fill="#71717a">Not therapy</text>

  <text x="300" y="355" font-family="system-ui" font-size="8" fill="#52525b" text-anchor="middle">Real decisions. Clear actions. Measurable progress.</text>
</svg>