<svg width="600" height="400" viewBox="0 0 600 400" xmlns="http://www.w3.org/2000/svg">
  <defs>
    <linearGradient id="app1-bg" x1="0%" y1="0%" x2="100%" y2="100%">
      <stop offset="0%" style="stop-color:#0f0a1a;stop-opacity:1" />
      <stop offset="100%" style="stop-color:#1a0f2e;stop-opacity:1" />
    </linearGradient>
  </defs>
  <rect width="600" height="400" fill="url(#app1-bg)"/>

  <text x="300" y="36" font-family="ui-monospace, monospace" font-size="11" fill="#a855f7" text-anchor="middle" font-weight="500">FIT ASSESSMENT</text>

  <!-- Assessment criteria -->
  <rect x="35" y="56" width="270" height="254" rx="10" fill="#1a0f2e" stroke="#a855f7" stroke-opacity="0.2"/>
  <text x="55" y="82" font-family="system-ui" font-size="10" fill="#71717a">Evaluation Criteria</text>
  <rect x="55" y="92" width="230" height="1" fill="#a855f7" fill-opacity="0.1"/>

  <rect x="55" y="105" width="230" height="44" rx="6" fill="#22c55e" fill-opacity="0.08" stroke="#22c55e" stroke-opacity="0.2"/>
  <text x="70" y="127" font-family="system-ui" font-size="9" fill="#d4d4d8">Clear problem & market</text>
  <rect x="210" y="117" width="55" height="18" rx="4" fill="#22c55e" fill-opacity="0.2"/>
  <text x="225" y="130" font-family="system-ui" font-size="8" fill="#22c55e">Strong</text>

  <rect x="55" y="157" width="230" height="44" rx="6" fill="#22c55e" fill-opacity="0.08" stroke="#22c55e" stroke-opacity="0.2"/>
  <text x="70" y="179" font-family="system-ui" font-size="9" fill="#d4d4d8">Execution readiness</text>
  <rect x="210" y="169" width="55" height="18" rx="4" fill="#22c55e" fill-opacity="0.2"/>
  <text x="225" y="182" font-family="system-ui" font-size="8" fill="#22c55e">Strong</text>

  <rect x="55" y="209" width="230" height="44" rx="6" fill="#eab308" fill-opacity="0.08" stroke="#eab308" stroke-opacity="0.2"/>
  <text x="70" y="231" font-family="system-ui" font-size="9" fill="#d4d4d8">Team capability gaps</text>
  <rect x="210" y="221" width="55" height="18" rx="4" fill="#eab308" fill-opacity="0.2"/>
  <text x="222" y="234" font-family="system-ui" font-size="8" fill="#eab308">Review</text>

  <rect x="55" y="261" width="230" height="44" rx="6" fill="#a855f7" fill-opacity="0.05" stroke="#a855f7" stroke-opacity="0.15"/>
  <text x="70" y="283" font-family="system-ui" font-size="9" fill="#71717a">Outcome alignment</text>
  <rect x="210" y="273" width="55" height="18" rx="4" fill="#a855f7" fill-opacity="0.1"/>
  <text x="218" y="286" font-family="system-ui" font-size="8" fill="#71717a">Pending</text>

  <!-- Fit score -->
  <rect x="325" y="56" width="240" height="160" rx="10" fill="#1a0f2e" stroke="#a855f7" stroke-opacity="0.25"/>
  <text x="345" y="82" font-family="system-ui" font-size="10" fill="#71717a">Fit Score</text>

  <circle cx="445" cy="140" r="55" fill="none" stroke="#12081f" stroke-width="12"/>
  <circle cx="445" cy="140" r="55" fill="none" stroke="#22c55e" stroke-width="12" stroke-dasharray="270 80" transform="rotate(-90 445 140)"/>
  <text x="425" y="148" font-family="ui-monospace, monospace" font-size="28" fill="#ffffff">78</text>
  <text x="470" y="148" font-family="system-ui" font-size="12" fill="#71717a">%</text>
  <text x="418" y="185" font-family="system-ui" font-size="10" fill="#22c55e">Good Match</text>

  <!-- Next steps -->
  <rect x="325" y="230" width="240" height="80" rx="10" fill="#1a0f2e" stroke="#a855f7" stroke-opacity="0.15"/>
  <text x="345" y="256" font-family="system-ui" font-size="10" fill="#71717a">Recommended Next Step</text>
  <rect x="345" y="270" width="200" height="28" rx="6" fill="#a855f7" fill-opacity="0.15" stroke="#a855f7" stroke-opacity="0.3"/>
  <text x="385" y="289" font-family="system-ui" font-size="10" fill="#a855f7">Schedule Discovery Call</text>

  <!-- Bottom status -->
  <rect x="35" y="330" width="530" height="40" rx="8" fill="#a855f7" fill-opacity="0.08"/>
  <text x="300" y="355" font-family="system-ui" font-size="9" fill="#a855f7" text-anchor="middle">Assessment in progress. Estimated completion: 2-3 business days.</text>
</svg>
