<svg width="600" height="400" viewBox="0 0 600 400" xmlns="http://www.w3.org/2000/svg">
  <defs>
    <linearGradient id="app2-bg" x1="0%" y1="0%" x2="100%" y2="100%">
      <stop offset="0%" style="stop-color:#0f0a1a;stop-opacity:1" />
      <stop offset="100%" style="stop-color:#1a0f2e;stop-opacity:1" />
    </linearGradient>
  </defs>
  <rect width="600" height="400" fill="url(#app2-bg)"/>

  <text x="300" y="36" font-family="ui-monospace, monospace" font-size="11" fill="#a855f7" text-anchor="middle" font-weight="500">DISCOVERY & STRUCTURING</text>

  <!-- Engagement model -->
  <rect x="35" y="56" width="530" height="110" rx="10" fill="#1a0f2e" stroke="#a855f7" stroke-opacity="0.2"/>
  <text x="55" y="82" font-family="system-ui" font-size="10" fill="#71717a">Engagement Model</text>
  <rect x="55" y="92" width="490" height="1" fill="#a855f7" fill-opacity="0.1"/>

  <rect x="55" y="105" width="150" height="50" rx="6" fill="#a855f7" fill-opacity="0.15" stroke="#a855f7" stroke-opacity="0.4"/>
  <text x="95" y="128" font-family="system-ui" font-size="10" fill="#a855f7">Advisory</text>
  <text x="82" y="145" font-family="system-ui" font-size="8" fill="#71717a">Monthly retainer</text>
  <circle cx="190" cy="130" r="5" fill="#a855f7"/>

  <rect x="225" y="105" width="150" height="50" rx="6" fill="#a855f7" fill-opacity="0.05" stroke="#a855f7" stroke-opacity="0.15"/>
  <text x="260" y="128" font-family="system-ui" font-size="10" fill="#71717a">Partnership</text>
  <text x="257" y="145" font-family="system-ui" font-size="8" fill="#52525b">Equity-based</text>
  <circle cx="360" cy="130" r="5" fill="none" stroke="#a855f7" stroke-opacity="0.3"/>

  <rect x="395" y="105" width="150" height="50" rx="6" fill="#a855f7" fill-opacity="0.05" stroke="#a855f7" stroke-opacity="0.15"/>
  <text x="450" y="128" font-family="system-ui" font-size="10" fill="#71717a">Hybrid</text>
  <text x="428" y="145" font-family="system-ui" font-size="8" fill="#52525b">Retainer + equity</text>
  <circle cx="530" cy="130" r="5" fill="none" stroke="#a855f7" stroke-opacity="0.3"/>

  <!-- Scope definition -->
  <rect x="35" y="180" width="260" height="140" rx="10" fill="#1a0f2e" stroke="#a855f7" stroke-opacity="0.2"/>
  <text x="55" y="206" font-family="system-ui" font-size="10" fill="#71717a">Scope Definition</text>
  <rect x="55" y="216" width="220" height="1" fill="#a855f7" fill-opacity="0.1"/>

  <text x="70" y="240" font-family="system-ui" font-size="9" fill="#22c55e">Growth strategy</text>
  <circle cx="260" cy="236" r="4" fill="#22c55e"/>
  <text x="70" y="262" font-family="system-ui" font-size="9" fill="#22c55e">Ops optimization</text>
  <circle cx="260" cy="258" r="4" fill="#22c55e"/>
  <text x="70" y="284" font-family="system-ui" font-size="9" fill="#a855f7">Product roadmap</text>
  <circle cx="260" cy="280" r="4" fill="none" stroke="#a855f7" stroke-opacity="0.5"/>
  <text x="70" y="306" font-family="system-ui" font-size="9" fill="#52525b">Fundraising support</text>
  <circle cx="260" cy="302" r="4" fill="none" stroke="#52525b" stroke-opacity="0.3"/>

  <!-- Success criteria -->
  <rect x="305" y="180" width="260" height="140" rx="10" fill="#1a0f2e" stroke="#22c55e" stroke-opacity="0.25"/>
  <text x="325" y="206" font-family="system-ui" font-size="10" fill="#22c55e">Success Criteria</text>
  <rect x="325" y="216" width="220" height="1" fill="#22c55e" fill-opacity="0.1"/>

  <rect x="325" y="235" width="220" height="36" rx="6" fill="#22c55e" fill-opacity="0.08"/>
  <text x="340" y="252" font-family="system-ui" font-size="8" fill="#71717a">MRR Growth Target</text>
  <text x="340" y="266" font-family="system-ui" font-size="10" fill="#d4d4d8">$50K  →  $150K</text>

  <rect x="325" y="279" width="220" height="36" rx="6" fill="#a855f7" fill-opacity="0.08"/>
  <text x="340" y="296" font-family="system-ui" font-size="8" fill="#71717a">Operations Efficiency</text>
  <text x="340" y="310" font-family="system-ui" font-size="10" fill="#d4d4d8">+40% improvement</text>

  <!-- Bottom timeline -->
  <rect x="35" y="335" width="530" height="35" rx="8" fill="#a855f7" fill-opacity="0.08"/>
  <text x="55" y="357" font-family="system-ui" font-size="9" fill="#71717a">Structuring Phase:</text>
  <text x="160" y="357" font-family="system-ui" font-size="9" fill="#a855f7">1-2 weeks to finalize engagement terms</text>
</svg>
