<svg width="600" height="400" viewBox="0 0 600 400" xmlns="http://www.w3.org/2000/svg">
  <defs>
    <linearGradient id="hwp3-bg" x1="0%" y1="0%" x2="100%" y2="100%">
      <stop offset="0%" style="stop-color:#0f0a1a;stop-opacity:1" />
      <stop offset="100%" style="stop-color:#1a0f2e;stop-opacity:1" />
    </linearGradient>
  </defs>
  <rect width="600" height="400" fill="url(#hwp3-bg)"/>

  <!-- Title -->
  <text x="300" y="36" font-family="ui-monospace, monospace" font-size="11" fill="#a855f7" text-anchor="middle" font-weight="500">DECISION RIGHTS MATRIX</text>

  <!-- Main matrix container -->
  <rect x="30" y="56" width="260" height="220" rx="10" fill="#1a0f2e" stroke="#a855f7" stroke-opacity="0.15"/>

  <!-- Matrix header -->
  <rect x="30" y="56" width="260" height="36" rx="10" fill="#a855f7" fill-opacity="0.08"/>
  <text x="100" y="80" font-family="system-ui" font-size="10" fill="#71717a" text-anchor="middle">Domain</text>
  <text x="200" y="80" font-family="system-ui" font-size="10" fill="#71717a" text-anchor="middle">Founder</text>
  <text x="265" y="80" font-family="system-ui" font-size="10" fill="#71717a" text-anchor="middle">ALV</text>

  <!-- Row 1 - Product -->
  <rect x="40" y="100" width="240" height="36" rx="4" fill="#a855f7" fill-opacity="0.03"/>
  <text x="52" y="123" font-family="system-ui" font-size="9" fill="#d4d4d8">Product</text>
  <rect x="172" y="108" width="44" height="20" rx="4" fill="#a855f7" fill-opacity="0.2"/>
  <text x="194" y="122" font-family="system-ui" font-size="8" fill="#a855f7" text-anchor="middle">Own</text>
  <rect x="240" y="108" width="44" height="20" rx="4" fill="#22c55e" fill-opacity="0.15"/>
  <text x="262" y="122" font-family="system-ui" font-size="8" fill="#22c55e" text-anchor="middle">Advise</text>

  <!-- Row 2 - Growth -->
  <text x="52" y="159" font-family="system-ui" font-size="9" fill="#d4d4d8">Growth</text>
  <rect x="172" y="144" width="44" height="20" rx="4" fill="#22c55e" fill-opacity="0.15"/>
  <text x="194" y="158" font-family="system-ui" font-size="8" fill="#22c55e" text-anchor="middle">Advise</text>
  <rect x="240" y="144" width="44" height="20" rx="4" fill="#a855f7" fill-opacity="0.2"/>
  <text x="262" y="158" font-family="system-ui" font-size="8" fill="#a855f7" text-anchor="middle">Own</text>

  <!-- Row 3 - Operations -->
  <rect x="40" y="172" width="240" height="36" rx="4" fill="#a855f7" fill-opacity="0.03"/>
  <text x="52" y="195" font-family="system-ui" font-size="9" fill="#d4d4d8">Operations</text>
  <rect x="172" y="180" width="44" height="20" rx="4" fill="#a855f7" fill-opacity="0.2"/>
  <text x="194" y="194" font-family="system-ui" font-size="8" fill="#a855f7" text-anchor="middle">Own</text>
  <rect x="240" y="180" width="44" height="20" rx="4" fill="#eab308" fill-opacity="0.15"/>
  <text x="262" y="194" font-family="system-ui" font-size="8" fill="#eab308" text-anchor="middle">Consult</text>

  <!-- Row 4 - Finance -->
  <text x="52" y="231" font-family="system-ui" font-size="9" fill="#d4d4d8">Finance</text>
  <rect x="172" y="216" width="44" height="20" rx="4" fill="#a855f7" fill-opacity="0.2"/>
  <text x="194" y="230" font-family="system-ui" font-size="8" fill="#a855f7" text-anchor="middle">Own</text>
  <rect x="240" y="216" width="44" height="20" rx="4" fill="#22c55e" fill-opacity="0.15"/>
  <text x="262" y="230" font-family="system-ui" font-size="8" fill="#22c55e" text-anchor="middle">Advise</text>

  <!-- Row 5 - Strategy -->
  <rect x="40" y="244" width="240" height="24" rx="4" fill="#a855f7" fill-opacity="0.03"/>
  <text x="52" y="261" font-family="system-ui" font-size="9" fill="#d4d4d8">Strategy</text>
  <rect x="172" y="248" width="44" height="16" rx="4" fill="#a855f7" fill-opacity="0.15"/>
  <text x="194" y="260" font-family="system-ui" font-size="7" fill="#a855f7" text-anchor="middle">Joint</text>
  <rect x="240" y="248" width="44" height="16" rx="4" fill="#a855f7" fill-opacity="0.15"/>
  <text x="262" y="260" font-family="system-ui" font-size="7" fill="#a855f7" text-anchor="middle">Joint</text>

  <!-- Incentive alignment section -->
  <rect x="310" y="56" width="250" height="220" rx="10" fill="#1a0f2e" stroke="#a855f7" stroke-opacity="0.15"/>
  <text x="326" y="80" font-family="system-ui" font-size="10" fill="#71717a">Incentive Alignment</text>

  <rect x="326" y="100" width="218" height="50" rx="6" fill="#a855f7" fill-opacity="0.1" stroke="#a855f7" stroke-opacity="0.2"/>
  <text x="342" y="122" font-family="system-ui" font-size="9" fill="#a855f7">Equity + Performance</text>
  <text x="342" y="138" font-family="system-ui" font-size="7" fill="#71717a">Skin in the game, aligned with outcomes</text>

  <rect x="326" y="160" width="218" height="50" rx="6" fill="#22c55e" fill-opacity="0.08" stroke="#22c55e" stroke-opacity="0.15"/>
  <text x="342" y="182" font-family="system-ui" font-size="9" fill="#22c55e">Clear Success Metrics</text>
  <text x="342" y="198" font-family="system-ui" font-size="7" fill="#71717a">Defined at kickoff, reviewed weekly</text>

  <rect x="326" y="220" width="218" height="44" rx="6" fill="#a855f7" fill-opacity="0.05"/>
  <text x="342" y="242" font-family="system-ui" font-size="9" fill="#d4d4d8">Transparent Reporting</text>
  <text x="342" y="256" font-family="system-ui" font-size="7" fill="#71717a">Full visibility into metrics and blockers</text>

  <!-- Bottom principle -->
  <rect x="30" y="295" width="540" height="75" rx="10" fill="#1a0f2e" stroke="#22c55e" stroke-opacity="0.2"/>
  <rect x="30" y="295" width="540" height="30" rx="10" fill="#22c55e" fill-opacity="0.05"/>
  <text x="56" y="316" font-family="system-ui" font-size="11" fill="#22c55e" font-weight="500">No Politics Zone</text>
  <text x="56" y="345" font-family="system-ui" font-size="9" fill="#d4d4d8">Decisions based on data and execution speed — not hierarchy or politics.</text>
  <text x="56" y="362" font-family="system-ui" font-size="8" fill="#71717a">Clear ownership + transparent communication = faster outcomes.</text>
</svg>