<svg width="600" height="400" viewBox="0 0 600 400" xmlns="http://www.w3.org/2000/svg">
  <defs>
    <linearGradient id="hwp-bg" x1="0%" y1="0%" x2="100%" y2="100%">
      <stop offset="0%" style="stop-color:#0f0a1a;stop-opacity:1" />
      <stop offset="100%" style="stop-color:#1a0f2e;stop-opacity:1" />
    </linearGradient>
  </defs>
  <rect width="600" height="400" fill="url(#hwp-bg)"/>

  <!-- Title -->
  <text x="300" y="36" font-family="ui-monospace, monospace" font-size="11" fill="#a855f7" text-anchor="middle" font-weight="500">WEEKLY OPERATING CADENCE</text>

  <!-- Calendar container -->
  <rect x="30" y="56" width="540" height="324" rx="12" fill="#12081f" stroke="#a855f7" stroke-opacity="0.15"/>

  <!-- Days header -->
  <rect x="30" y="56" width="540" height="36" rx="12" fill="#1a0f2e"/>
  <text x="85" y="80" font-family="system-ui" font-size="10" fill="#71717a" text-anchor="middle">Mon</text>
  <text x="193" y="80" font-family="system-ui" font-size="10" fill="#71717a" text-anchor="middle">Tue</text>
  <text x="300" y="80" font-family="system-ui" font-size="10" fill="#71717a" text-anchor="middle">Wed</text>
  <text x="408" y="80" font-family="system-ui" font-size="10" fill="#71717a" text-anchor="middle">Thu</text>
  <text x="515" y="80" font-family="system-ui" font-size="10" fill="#a855f7" text-anchor="middle">Fri</text>

  <!-- Day columns -->
  <line x1="138" y1="92" x2="138" y2="380" stroke="#a855f7" stroke-opacity="0.05"/>
  <line x1="246" y1="92" x2="246" y2="380" stroke="#a855f7" stroke-opacity="0.05"/>
  <line x1="354" y1="92" x2="354" y2="380" stroke="#a855f7" stroke-opacity="0.05"/>
  <line x1="462" y1="92" x2="462" y2="380" stroke="#a855f7" stroke-opacity="0.05"/>

  <!-- Monday events -->
  <rect x="40" y="105" width="88" height="55" rx="6" fill="#a855f7" fill-opacity="0.12" stroke="#a855f7" stroke-opacity="0.25"/>
  <text x="50" y="122" font-family="system-ui" font-size="8" fill="#a855f7">Sprint Planning</text>
  <text x="50" y="136" font-family="system-ui" font-size="7" fill="#71717a">9:00 AM</text>
  <rect x="50" y="145" width="68" height="4" rx="1" fill="#a855f7" fill-opacity="0.3"/>

  <rect x="40" y="170" width="88" height="40" rx="6" fill="#1a0f2e" stroke="#a855f7" stroke-opacity="0.1"/>
  <text x="50" y="187" font-family="system-ui" font-size="8" fill="#d4d4d8">Team Sync</text>
  <text x="50" y="200" font-family="system-ui" font-size="7" fill="#71717a">2:00 PM</text>

  <!-- Tuesday events -->
  <rect x="148" y="105" width="88" height="45" rx="6" fill="#22c55e" fill-opacity="0.12" stroke="#22c55e" stroke-opacity="0.25"/>
  <text x="158" y="122" font-family="system-ui" font-size="8" fill="#22c55e">Exec Sync</text>
  <text x="158" y="136" font-family="system-ui" font-size="7" fill="#71717a">10:00 AM</text>

  <rect x="148" y="160" width="88" height="35" rx="6" fill="#1a0f2e" stroke="#a855f7" stroke-opacity="0.1"/>
  <text x="158" y="177" font-family="system-ui" font-size="8" fill="#d4d4d8">Partner Call</text>
  <text x="158" y="190" font-family="system-ui" font-size="7" fill="#71717a">3:00 PM</text>

  <!-- Wednesday - focus block -->
  <rect x="256" y="105" width="88" height="105" rx="6" fill="#1a0f2e" stroke="#a855f7" stroke-opacity="0.15" stroke-dasharray="4,2"/>
  <text x="300" y="145" font-family="system-ui" font-size="9" fill="#71717a" text-anchor="middle">Deep Work</text>
  <text x="300" y="165" font-family="system-ui" font-size="7" fill="#52525b" text-anchor="middle">No meetings</text>
  <rect x="275" y="180" width="50" height="16" rx="4" fill="#a855f7" fill-opacity="0.08"/>
  <text x="300" y="191" font-family="system-ui" font-size="7" fill="#a855f7" text-anchor="middle">Focus</text>

  <!-- Thursday events -->
  <rect x="364" y="105" width="88" height="40" rx="6" fill="#eab308" fill-opacity="0.12" stroke="#eab308" stroke-opacity="0.25"/>
  <text x="374" y="122" font-family="system-ui" font-size="8" fill="#eab308">1:1 Reviews</text>
  <text x="374" y="136" font-family="system-ui" font-size="7" fill="#71717a">All day</text>

  <rect x="364" y="155" width="88" height="35" rx="6" fill="#1a0f2e" stroke="#a855f7" stroke-opacity="0.1"/>
  <text x="374" y="172" font-family="system-ui" font-size="8" fill="#d4d4d8">Metrics Review</text>
  <text x="374" y="185" font-family="system-ui" font-size="7" fill="#71717a">4:00 PM</text>

  <!-- Friday - highlighted -->
  <rect x="472" y="105" width="88" height="75" rx="6" fill="#a855f7" fill-opacity="0.18" stroke="#a855f7" stroke-opacity="0.4"/>
  <text x="482" y="122" font-family="system-ui" font-size="8" fill="#a855f7">Weekly Close</text>
  <text x="482" y="138" font-family="system-ui" font-size="7" fill="#d4d4d8">KPI Review</text>
  <text x="482" y="152" font-family="system-ui" font-size="7" fill="#d4d4d8">Next Week Plan</text>
  <text x="482" y="166" font-family="system-ui" font-size="7" fill="#71717a">2:00 PM</text>

  <!-- Bottom - priorities section -->
  <rect x="40" y="230" width="520" height="1" fill="#a855f7" fill-opacity="0.1"/>
  <text x="50" y="255" font-family="system-ui" font-size="10" fill="#71717a">This Week's Priorities</text>

  <rect x="40" y="268" width="170" height="44" rx="6" fill="#1a0f2e" stroke="#a855f7" stroke-opacity="0.1"/>
  <circle cx="56" cy="290" r="5" fill="#22c55e" fill-opacity="0.3" stroke="#22c55e" stroke-opacity="0.5"/>
  <text x="70" y="286" font-family="system-ui" font-size="8" fill="#d4d4d8">Ship payment flow</text>
  <text x="70" y="300" font-family="system-ui" font-size="7" fill="#22c55e">On track</text>

  <rect x="220" y="268" width="170" height="44" rx="6" fill="#1a0f2e" stroke="#a855f7" stroke-opacity="0.1"/>
  <circle cx="236" cy="290" r="5" fill="#eab308" fill-opacity="0.3" stroke="#eab308" stroke-opacity="0.5"/>
  <text x="250" y="286" font-family="system-ui" font-size="8" fill="#d4d4d8">Q1 metrics review</text>
  <text x="250" y="300" font-family="system-ui" font-size="7" fill="#eab308">In progress</text>

  <rect x="400" y="268" width="160" height="44" rx="6" fill="#1a0f2e" stroke="#a855f7" stroke-opacity="0.1"/>
  <circle cx="416" cy="290" r="5" fill="#a855f7" fill-opacity="0.3" stroke="#a855f7" stroke-opacity="0.5"/>
  <text x="430" y="286" font-family="system-ui" font-size="8" fill="#d4d4d8">Partner onboarding</text>
  <text x="430" y="300" font-family="system-ui" font-size="7" fill="#a855f7">Scheduled</text>

  <!-- Status bar -->
  <rect x="40" y="330" width="520" height="40" rx="6" fill="#1a0f2e" stroke="#a855f7" stroke-opacity="0.08"/>
  <text x="60" y="354" font-family="system-ui" font-size="8" fill="#71717a">Week 12 of Q1</text>
  <text x="200" y="354" font-family="system-ui" font-size="8" fill="#71717a">Tasks: <tspan fill="#d4d4d8">8/12</tspan></text>
  <text x="320" y="354" font-family="system-ui" font-size="8" fill="#71717a">Hours logged: <tspan fill="#a855f7">42h</tspan></text>
  <circle cx="500" cy="350" r="4" fill="#22c55e"/>
  <text x="510" y="354" font-family="system-ui" font-size="8" fill="#22c55e">On track</text>
</svg>