<svg width="600" height="400" viewBox="0 0 600 400" xmlns="http://www.w3.org/2000/svg">
  <defs>
    <linearGradient id="vs3-bg" x1="0%" y1="0%" x2="100%" y2="100%">
      <stop offset="0%" style="stop-color:#0f0a1a;stop-opacity:1" />
      <stop offset="100%" style="stop-color:#1a0f2e;stop-opacity:1" />
    </linearGradient>
  </defs>
  <rect width="600" height="400" fill="url(#vs3-bg)"/>

  <text x="300" y="36" font-family="ui-monospace, monospace" font-size="11" fill="#a855f7" text-anchor="middle" font-weight="500">SCALE INFRASTRUCTURE</text>

  <!-- Stack layers -->
  <rect x="50" y="60" width="500" height="60" rx="8" fill="#1a0f2e" stroke="#a855f7" stroke-opacity="0.4" stroke-width="1.5"/>
  <rect x="50" y="60" width="500" height="6" rx="8" fill="#a855f7" fill-opacity="0.4"/>
  <text x="80" y="95" font-family="system-ui" font-size="11" fill="#a855f7" font-weight="500">Application Layer</text>
  <circle cx="250" cy="90" r="6" fill="#22c55e"/>
  <circle cx="270" cy="90" r="6" fill="#22c55e"/>
  <circle cx="290" cy="90" r="6" fill="#22c55e"/>
  <text x="310" y="95" font-family="system-ui" font-size="9" fill="#22c55e">3 instances healthy</text>
  <rect x="450" y="78" width="80" height="24" rx="4" fill="#22c55e" fill-opacity="0.1"/>
  <text x="470" y="94" font-family="system-ui" font-size="9" fill="#22c55e">Healthy</text>

  <rect x="50" y="130" width="500" height="60" rx="8" fill="#1a0f2e" stroke="#22c55e" stroke-opacity="0.3"/>
  <text x="80" y="165" font-family="system-ui" font-size="11" fill="#22c55e" font-weight="500">Compliance & Security</text>
  <rect x="250" y="148" width="50" height="22" rx="4" fill="#22c55e" fill-opacity="0.15"/>
  <text x="260" y="163" font-family="system-ui" font-size="8" fill="#22c55e">SOC 2</text>
  <rect x="310" y="148" width="50" height="22" rx="4" fill="#22c55e" fill-opacity="0.15"/>
  <text x="320" y="163" font-family="system-ui" font-size="8" fill="#22c55e">GDPR</text>
  <rect x="370" y="148" width="50" height="22" rx="4" fill="#22c55e" fill-opacity="0.1"/>
  <text x="377" y="163" font-family="system-ui" font-size="8" fill="#22c55e">PCI</text>
  <rect x="450" y="148" width="80" height="24" rx="4" fill="#22c55e" fill-opacity="0.1"/>
  <text x="470" y="164" font-family="system-ui" font-size="9" fill="#22c55e">Active</text>

  <rect x="50" y="200" width="500" height="60" rx="8" fill="#1a0f2e" stroke="#eab308" stroke-opacity="0.3"/>
  <text x="80" y="235" font-family="system-ui" font-size="11" fill="#eab308" font-weight="500">Performance & Monitoring</text>
  <text x="280" y="228" font-family="system-ui" font-size="8" fill="#d4d4d8">99.9% uptime</text>
  <text x="280" y="245" font-family="system-ui" font-size="8" fill="#d4d4d8">p99: 120ms</text>
  <text x="380" y="228" font-family="system-ui" font-size="8" fill="#71717a">Alerts: 0</text>
  <text x="380" y="245" font-family="system-ui" font-size="8" fill="#71717a">Errors: 0.01%</text>
  <rect x="450" y="218" width="80" height="24" rx="4" fill="#eab308" fill-opacity="0.1"/>
  <text x="465" y="234" font-family="system-ui" font-size="9" fill="#eab308">Scaling</text>

  <rect x="50" y="270" width="500" height="60" rx="8" fill="#1a0f2e" stroke="#a855f7" stroke-opacity="0.15"/>
  <text x="80" y="305" font-family="system-ui" font-size="11" fill="#71717a" font-weight="500">Data & Analytics</text>
  <text x="280" y="298" font-family="system-ui" font-size="8" fill="#52525b">Warehouse</text>
  <text x="280" y="315" font-family="system-ui" font-size="8" fill="#52525b">Pipelines</text>
  <text x="380" y="298" font-family="system-ui" font-size="8" fill="#52525b">BI</text>
  <text x="380" y="315" font-family="system-ui" font-size="8" fill="#52525b">ML ready</text>
  <rect x="450" y="288" width="80" height="24" rx="4" fill="#a855f7" fill-opacity="0.08"/>
  <text x="472" y="304" font-family="system-ui" font-size="9" fill="#71717a">Ready</text>

  <!-- Bottom metrics -->
  <rect x="50" y="345" width="155" height="35" rx="6" fill="#22c55e" fill-opacity="0.1" stroke="#22c55e" stroke-opacity="0.2"/>
  <text x="75" y="367" font-family="system-ui" font-size="9" fill="#22c55e">Trust Score: 94</text>

  <rect x="222" y="345" width="155" height="35" rx="6" fill="#a855f7" fill-opacity="0.1" stroke="#a855f7" stroke-opacity="0.2"/>
  <text x="252" y="367" font-family="system-ui" font-size="9" fill="#a855f7">Load: 2.4K rps</text>

  <rect x="394" y="345" width="155" height="35" rx="6" fill="#eab308" fill-opacity="0.1" stroke="#eab308" stroke-opacity="0.2"/>
  <text x="424" y="367" font-family="system-ui" font-size="9" fill="#eab308">Auto-scale: ON</text>
</svg>