<svg width="600" height="400" viewBox="0 0 600 400" xmlns="http://www.w3.org/2000/svg">
  <defs>
    <linearGradient id="vs-bg" x1="0%" y1="0%" x2="100%" y2="100%">
      <stop offset="0%" style="stop-color:#0f0a1a;stop-opacity:1" />
      <stop offset="100%" style="stop-color:#1a0f2e;stop-opacity:1" />
    </linearGradient>
  </defs>
  <rect width="600" height="400" fill="url(#vs-bg)"/>

  <text x="300" y="36" font-family="ui-monospace, monospace" font-size="11" fill="#a855f7" text-anchor="middle" font-weight="500">VENTURE BLUEPRINT</text>

  <!-- Three pillar cards -->
  <!-- Product -->
  <rect x="35" y="60" width="170" height="220" rx="10" fill="#1a0f2e" stroke="#a855f7" stroke-opacity="0.3"/>
  <rect x="35" y="60" width="170" height="8" rx="10" fill="#a855f7" fill-opacity="0.5"/>
  <text x="120" y="90" font-family="system-ui" font-size="11" fill="#a855f7" text-anchor="middle" font-weight="500">Product</text>

  <text x="52" y="115" font-family="system-ui" font-size="8" fill="#d4d4d8">Core value prop</text>
  <rect x="150" y="105" width="40" height="14" rx="3" fill="#22c55e" fill-opacity="0.15"/>
  <text x="160" y="115" font-family="system-ui" font-size="7" fill="#22c55e">Done</text>

  <text x="52" y="140" font-family="system-ui" font-size="8" fill="#d4d4d8">MVP scope</text>
  <rect x="150" y="130" width="40" height="14" rx="3" fill="#22c55e" fill-opacity="0.15"/>
  <text x="160" y="140" font-family="system-ui" font-size="7" fill="#22c55e">Done</text>

  <text x="52" y="165" font-family="system-ui" font-size="8" fill="#d4d4d8">Tech stack</text>
  <rect x="150" y="155" width="40" height="14" rx="3" fill="#22c55e" fill-opacity="0.15"/>
  <text x="160" y="165" font-family="system-ui" font-size="7" fill="#22c55e">Done</text>

  <text x="52" y="190" font-family="system-ui" font-size="8" fill="#71717a">Roadmap</text>
  <rect x="150" y="180" width="40" height="14" rx="3" fill="#a855f7" fill-opacity="0.15"/>
  <text x="155" y="190" font-family="system-ui" font-size="7" fill="#a855f7">75%</text>

  <rect x="52" y="210" width="136" height="6" rx="2" fill="#1a0f2e"/>
  <rect x="52" y="210" width="122" height="6" rx="2" fill="#22c55e" fill-opacity="0.4"/>

  <rect x="52" y="235" width="136" height="28" rx="6" fill="#22c55e" fill-opacity="0.1" stroke="#22c55e" stroke-opacity="0.2"/>
  <text x="120" y="253" font-family="system-ui" font-size="9" fill="#22c55e" text-anchor="middle">Validated</text>

  <!-- Operations -->
  <rect x="215" y="60" width="170" height="220" rx="10" fill="#1a0f2e" stroke="#a855f7" stroke-opacity="0.4"/>
  <rect x="215" y="60" width="170" height="8" rx="10" fill="#a855f7" fill-opacity="0.7"/>
  <text x="300" y="90" font-family="system-ui" font-size="11" fill="#a855f7" text-anchor="middle" font-weight="500">Operations</text>

  <text x="232" y="115" font-family="system-ui" font-size="8" fill="#d4d4d8">Team structure</text>
  <rect x="330" y="105" width="40" height="14" rx="3" fill="#22c55e" fill-opacity="0.15"/>
  <text x="340" y="115" font-family="system-ui" font-size="7" fill="#22c55e">Done</text>

  <text x="232" y="140" font-family="system-ui" font-size="8" fill="#d4d4d8">Process design</text>
  <rect x="330" y="130" width="40" height="14" rx="3" fill="#a855f7" fill-opacity="0.15"/>
  <text x="335" y="140" font-family="system-ui" font-size="7" fill="#a855f7">60%</text>

  <text x="232" y="165" font-family="system-ui" font-size="8" fill="#71717a">Tools & systems</text>
  <rect x="330" y="155" width="40" height="14" rx="3" fill="#a855f7" fill-opacity="0.1"/>
  <text x="335" y="165" font-family="system-ui" font-size="7" fill="#71717a">40%</text>

  <text x="232" y="190" font-family="system-ui" font-size="8" fill="#71717a">KPIs defined</text>
  <rect x="330" y="180" width="40" height="14" rx="3" fill="#52525b" fill-opacity="0.2"/>
  <text x="337" y="190" font-family="system-ui" font-size="7" fill="#52525b">10%</text>

  <rect x="232" y="210" width="136" height="6" rx="2" fill="#1a0f2e"/>
  <rect x="232" y="210" width="68" height="6" rx="2" fill="#a855f7" fill-opacity="0.5"/>

  <rect x="232" y="235" width="136" height="28" rx="6" fill="#a855f7" fill-opacity="0.1" stroke="#a855f7" stroke-opacity="0.3"/>
  <text x="300" y="253" font-family="system-ui" font-size="9" fill="#a855f7" text-anchor="middle">In Progress</text>

  <!-- Distribution -->
  <rect x="395" y="60" width="170" height="220" rx="10" fill="#1a0f2e" stroke="#a855f7" stroke-opacity="0.15"/>
  <rect x="395" y="60" width="170" height="8" rx="10" fill="#a855f7" fill-opacity="0.2"/>
  <text x="480" y="90" font-family="system-ui" font-size="11" fill="#71717a" text-anchor="middle" font-weight="500">Distribution</text>

  <text x="412" y="115" font-family="system-ui" font-size="8" fill="#52525b">Channel strategy</text>
  <text x="412" y="140" font-family="system-ui" font-size="8" fill="#52525b">GTM plan</text>
  <text x="412" y="165" font-family="system-ui" font-size="8" fill="#52525b">Partnership leads</text>
  <text x="412" y="190" font-family="system-ui" font-size="8" fill="#52525b">Launch timeline</text>

  <rect x="412" y="210" width="136" height="6" rx="2" fill="#a855f7" fill-opacity="0.05"/>

  <rect x="412" y="235" width="136" height="28" rx="6" fill="#a855f7" fill-opacity="0.03"/>
  <text x="480" y="253" font-family="system-ui" font-size="9" fill="#52525b" text-anchor="middle">Planned</text>

  <!-- Bottom progress bar -->
  <rect x="35" y="300" width="530" height="70" rx="10" fill="#1a0f2e" stroke="#a855f7" stroke-opacity="0.1"/>
  <text x="55" y="330" font-family="system-ui" font-size="10" fill="#71717a">Overall Blueprint Progress</text>
  <rect x="55" y="345" width="410" height="10" rx="4" fill="#12081f"/>
  <rect x="55" y="345" width="270" height="10" rx="4" fill="#a855f7" fill-opacity="0.4"/>
  <text x="480" y="355" font-family="ui-monospace, monospace" font-size="14" fill="#a855f7">67%</text>
</svg>