<svg width="600" height="400" viewBox="0 0 600 400" xmlns="http://www.w3.org/2000/svg">
  <defs>
    <linearGradient id="bg-grad" x1="0%" y1="0%" x2="100%" y2="100%">
      <stop offset="0%" style="stop-color:#0f0a1a;stop-opacity:1" />
      <stop offset="100%" style="stop-color:#1a0f2e;stop-opacity:1" />
    </linearGradient>
    <linearGradient id="purple-grad" x1="0%" y1="0%" x2="100%" y2="0%">
      <stop offset="0%" style="stop-color:#a855f7;stop-opacity:0.8" />
      <stop offset="100%" style="stop-color:#7c3aed;stop-opacity:0.6" />
    </linearGradient>
    <filter id="glow">
      <feGaussianBlur stdDeviation="2" result="coloredBlur"/>
      <feMerge><feMergeNode in="coloredBlur"/><feMergeNode in="SourceGraphic"/></feMerge>
    </filter>
  </defs>
  <rect width="600" height="400" fill="url(#bg-grad)"/>

  <!-- Subtle grid -->
  <pattern id="grid" width="20" height="20" patternUnits="userSpaceOnUse">
    <path d="M 20 0 L 0 0 0 20" fill="none" stroke="#a855f7" stroke-opacity="0.03" stroke-width="1"/>
  </pattern>
  <rect width="600" height="400" fill="url(#grid)"/>

  <!-- Dashboard container -->
  <rect x="24" y="24" width="552" height="352" rx="12" fill="#12081f" stroke="#a855f7" stroke-opacity="0.15" stroke-width="1"/>

  <!-- Header -->
  <rect x="24" y="24" width="552" height="44" rx="12" fill="#1a0f2e"/>
  <circle cx="48" cy="46" r="6" fill="#a855f7" fill-opacity="0.6"/>
  <text x="64" y="50" font-family="ui-monospace, monospace" font-size="11" fill="#a855f7" font-weight="500">OPERATOR DASHBOARD</text>
  <rect x="480" y="38" width="80" height="16" rx="4" fill="#a855f7" fill-opacity="0.1"/>
  <text x="495" y="49" font-family="system-ui" font-size="9" fill="#a855f7" fill-opacity="0.7">Live</text>
  <circle cx="540" cy="46" r="3" fill="#22c55e" filter="url(#glow)"/>

  <!-- KPI Cards -->
  <rect x="40" y="84" width="125" height="72" rx="8" fill="#1a0f2e" stroke="#a855f7" stroke-opacity="0.1"/>
  <text x="52" y="104" font-family="system-ui" font-size="9" fill="#71717a">MRR</text>
  <text x="52" y="130" font-family="ui-monospace, monospace" font-size="22" fill="#ffffff" font-weight="600">$847K</text>
  <text x="52" y="146" font-family="system-ui" font-size="9" fill="#22c55e">+18.2%</text>

  <rect x="175" y="84" width="125" height="72" rx="8" fill="#1a0f2e" stroke="#a855f7" stroke-opacity="0.1"/>
  <text x="187" y="104" font-family="system-ui" font-size="9" fill="#71717a">Active Users</text>
  <text x="187" y="130" font-family="ui-monospace, monospace" font-size="22" fill="#ffffff" font-weight="600">24.8K</text>
  <text x="187" y="146" font-family="system-ui" font-size="9" fill="#22c55e">+12.4%</text>

  <rect x="310" y="84" width="125" height="72" rx="8" fill="#1a0f2e" stroke="#a855f7" stroke-opacity="0.1"/>
  <text x="322" y="104" font-family="system-ui" font-size="9" fill="#71717a">Conversion</text>
  <text x="322" y="130" font-family="ui-monospace, monospace" font-size="22" fill="#a855f7" font-weight="600">4.2%</text>
  <text x="322" y="146" font-family="system-ui" font-size="9" fill="#22c55e">+0.8pp</text>

  <rect x="445" y="84" width="115" height="72" rx="8" fill="#1a0f2e" stroke="#a855f7" stroke-opacity="0.1"/>
  <text x="457" y="104" font-family="system-ui" font-size="9" fill="#71717a">NPS</text>
  <text x="457" y="130" font-family="ui-monospace, monospace" font-size="22" fill="#ffffff" font-weight="600">72</text>
  <text x="457" y="146" font-family="system-ui" font-size="9" fill="#71717a">Excellent</text>

  <!-- Chart area -->
  <rect x="40" y="172" width="340" height="188" rx="8" fill="#1a0f2e" stroke="#a855f7" stroke-opacity="0.1"/>
  <text x="56" y="196" font-family="system-ui" font-size="10" fill="#71717a">Revenue & Growth Trend</text>

  <!-- Chart grid lines -->
  <line x1="56" y1="220" x2="364" y2="220" stroke="#a855f7" stroke-opacity="0.05"/>
  <line x1="56" y1="260" x2="364" y2="260" stroke="#a855f7" stroke-opacity="0.05"/>
  <line x1="56" y1="300" x2="364" y2="300" stroke="#a855f7" stroke-opacity="0.05"/>
  <line x1="56" y1="340" x2="364" y2="340" stroke="#a855f7" stroke-opacity="0.05"/>

  <!-- Area chart fill -->
  <path d="M56,340 L96,320 L136,310 L176,290 L216,270 L256,255 L296,240 L336,225 L364,220 L364,340 Z" fill="url(#purple-grad)" fill-opacity="0.15"/>

  <!-- Line chart -->
  <polyline points="56,340 96,320 136,310 176,290 216,270 256,255 296,240 336,225 364,220" fill="none" stroke="#a855f7" stroke-width="2" filter="url(#glow)"/>
  <circle cx="364" cy="220" r="4" fill="#a855f7" filter="url(#glow)"/>

  <!-- Secondary line -->
  <polyline points="56,340 96,335 136,325 176,315 216,300 256,290 296,275 336,265 364,255" fill="none" stroke="#22c55e" stroke-width="1.5" stroke-dasharray="4,2"/>

  <!-- Activity feed -->
  <rect x="396" y="172" width="164" height="188" rx="8" fill="#1a0f2e" stroke="#a855f7" stroke-opacity="0.1"/>
  <text x="412" y="196" font-family="system-ui" font-size="10" fill="#71717a">Activity Feed</text>

  <rect x="408" y="212" width="140" height="32" rx="4" fill="#a855f7" fill-opacity="0.08"/>
  <circle cx="420" cy="228" r="4" fill="#22c55e"/>
  <text x="432" y="225" font-family="system-ui" font-size="8" fill="#d4d4d8">New signup</text>
  <text x="432" y="236" font-family="system-ui" font-size="7" fill="#71717a">2 min ago</text>

  <rect x="408" y="252" width="140" height="32" rx="4" fill="#a855f7" fill-opacity="0.05"/>
  <circle cx="420" cy="268" r="4" fill="#a855f7"/>
  <text x="432" y="265" font-family="system-ui" font-size="8" fill="#d4d4d8">Payment received</text>
  <text x="432" y="276" font-family="system-ui" font-size="7" fill="#71717a">5 min ago</text>

  <rect x="408" y="292" width="140" height="32" rx="4" fill="#a855f7" fill-opacity="0.03"/>
  <circle cx="420" cy="308" r="4" fill="#eab308"/>
  <text x="432" y="305" font-family="system-ui" font-size="8" fill="#d4d4d8">Funnel optimized</text>
  <text x="432" y="316" font-family="system-ui" font-size="7" fill="#71717a">12 min ago</text>

  <rect x="408" y="332" width="140" height="24" rx="4" fill="#a855f7" fill-opacity="0.02"/>
  <text x="458" y="347" font-family="system-ui" font-size="8" fill="#71717a">View all</text>
</svg>