<svg width="600" height="400" viewBox="0 0 600 400" xmlns="http://www.w3.org/2000/svg">
  <defs>
    <linearGradient id="bg-grad3" x1="0%" y1="0%" x2="100%" y2="100%">
      <stop offset="0%" style="stop-color:#0f0a1a;stop-opacity:1" />
      <stop offset="100%" style="stop-color:#1a0f2e;stop-opacity:1" />
    </linearGradient>
    <linearGradient id="funnel-grad" x1="0%" y1="0%" x2="0%" y2="100%">
      <stop offset="0%" style="stop-color:#a855f7;stop-opacity:0.4" />
      <stop offset="100%" style="stop-color:#a855f7;stop-opacity:0.1" />
    </linearGradient>
  </defs>
  <rect width="600" height="400" fill="url(#bg-grad3)"/>

  <!-- Title -->
  <text x="300" y="36" font-family="ui-monospace, monospace" font-size="11" fill="#a855f7" text-anchor="middle" font-weight="500">DISTRIBUTION FUNNEL</text>

  <!-- Funnel visualization -->
  <polygon points="100,60 500,60 450,100 150,100" fill="#a855f7" fill-opacity="0.25" stroke="#a855f7" stroke-opacity="0.4"/>
  <text x="300" y="85" font-family="system-ui" font-size="10" fill="#ffffff" text-anchor="middle">Visitors</text>
  <text x="520" y="85" font-family="ui-monospace, monospace" font-size="11" fill="#a855f7">124,500</text>

  <polygon points="150,108 450,108 420,148 180,148" fill="#a855f7" fill-opacity="0.2" stroke="#a855f7" stroke-opacity="0.3"/>
  <text x="300" y="133" font-family="system-ui" font-size="10" fill="#ffffff" text-anchor="middle">Signups</text>
  <text x="520" y="133" font-family="ui-monospace, monospace" font-size="11" fill="#d4d4d8">18,675</text>
  <text x="540" y="145" font-family="system-ui" font-size="8" fill="#22c55e">15%</text>

  <polygon points="180,156 420,156 390,196 210,196" fill="#a855f7" fill-opacity="0.15" stroke="#a855f7" stroke-opacity="0.25"/>
  <text x="300" y="181" font-family="system-ui" font-size="10" fill="#ffffff" text-anchor="middle">Activated</text>
  <text x="520" y="181" font-family="ui-monospace, monospace" font-size="11" fill="#d4d4d8">7,470</text>
  <text x="540" y="193" font-family="system-ui" font-size="8" fill="#22c55e">40%</text>

  <polygon points="210,204 390,204 360,244 240,244" fill="#a855f7" fill-opacity="0.12" stroke="#a855f7" stroke-opacity="0.2"/>
  <text x="300" y="229" font-family="system-ui" font-size="10" fill="#ffffff" text-anchor="middle">Trial</text>
  <text x="520" y="229" font-family="ui-monospace, monospace" font-size="11" fill="#d4d4d8">2,988</text>
  <text x="540" y="241" font-family="system-ui" font-size="8" fill="#eab308">40%</text>

  <polygon points="240,252 360,252 330,292 270,292" fill="#22c55e" fill-opacity="0.2" stroke="#22c55e" stroke-opacity="0.4"/>
  <text x="300" y="277" font-family="system-ui" font-size="10" fill="#ffffff" text-anchor="middle">Paid</text>
  <text x="520" y="277" font-family="ui-monospace, monospace" font-size="11" fill="#22c55e">896</text>
  <text x="540" y="289" font-family="system-ui" font-size="8" fill="#22c55e">30%</text>

  <!-- Channel breakdown -->
  <rect x="40" y="310" width="160" height="70" rx="8" fill="#1a0f2e" stroke="#a855f7" stroke-opacity="0.15"/>
  <text x="56" y="330" font-family="system-ui" font-size="9" fill="#71717a">Organic</text>
  <rect x="56" y="340" width="80" height="6" rx="2" fill="#1a0f2e"/>
  <rect x="56" y="340" width="64" height="6" rx="2" fill="#a855f7" fill-opacity="0.6"/>
  <text x="56" y="362" font-family="ui-monospace, monospace" font-size="10" fill="#d4d4d8">42%</text>
  <text x="90" y="362" font-family="system-ui" font-size="8" fill="#71717a">52K visitors</text>

  <rect x="220" y="310" width="160" height="70" rx="8" fill="#1a0f2e" stroke="#a855f7" stroke-opacity="0.15"/>
  <text x="236" y="330" font-family="system-ui" font-size="9" fill="#71717a">Paid</text>
  <rect x="236" y="340" width="80" height="6" rx="2" fill="#1a0f2e"/>
  <rect x="236" y="340" width="44" height="6" rx="2" fill="#22c55e" fill-opacity="0.6"/>
  <text x="236" y="362" font-family="ui-monospace, monospace" font-size="10" fill="#d4d4d8">28%</text>
  <text x="270" y="362" font-family="system-ui" font-size="8" fill="#71717a">35K visitors</text>

  <rect x="400" y="310" width="160" height="70" rx="8" fill="#1a0f2e" stroke="#a855f7" stroke-opacity="0.15"/>
  <text x="416" y="330" font-family="system-ui" font-size="9" fill="#71717a">Referral</text>
  <rect x="416" y="340" width="80" height="6" rx="2" fill="#1a0f2e"/>
  <rect x="416" y="340" width="38" height="6" rx="2" fill="#eab308" fill-opacity="0.6"/>
  <text x="416" y="362" font-family="ui-monospace, monospace" font-size="10" fill="#d4d4d8">30%</text>
  <text x="450" y="362" font-family="system-ui" font-size="8" fill="#71717a">37K visitors</text>

  <!-- Conversion metric highlight -->
  <rect x="40" y="55" width="50" height="40" rx="6" fill="#1a0f2e" stroke="#a855f7" stroke-opacity="0.2"/>
  <text x="65" y="72" font-family="ui-monospace, monospace" font-size="12" fill="#a855f7" text-anchor="middle">0.7%</text>
  <text x="65" y="86" font-family="system-ui" font-size="7" fill="#71717a" text-anchor="middle">Overall CVR</text>
</svg>