<svg xmlns="http://www.w3.org/2000/svg" xmlns:xlink="http://www.w3.org/1999/xlink" width="1000" zoomAndPan="magnify" viewBox="0 0 750 374.999991" height="500" preserveAspectRatio="xMidYMid meet" version="1.0"><defs><g/><clipPath id="3a9809cb6f"><path d="M 8.039062 112.5 L 161.789062 112.5 L 161.789062 266.25 L 8.039062 266.25 Z M 8.039062 112.5 " clip-rule="nonzero"/></clipPath><clipPath id="b0d06a3c08"><path d="M 8.039062 112.5 L 161.789062 112.5 L 161.789062 266.25 L 8.039062 266.25 Z M 8.039062 112.5 " clip-rule="nonzero"/></clipPath><clipPath id="d5d2e76ecf"><rect x="0" width="554" y="0" height="155"/></clipPath></defs><g clip-path="url(#3a9809cb6f)"><path fill="#1ca5ea" d="M 158.929688 182.464844 L 91.800781 115.359375 C 88.003906 111.5625 81.800781 111.5625 78.003906 115.359375 L 10.902344 182.464844 C 7.105469 186.261719 7.105469 192.464844 10.902344 196.261719 L 78.03125 263.390625 C 81.828125 267.1875 88.027344 267.1875 91.824219 263.390625 L 158.957031 196.261719 C 162.753906 192.464844 162.753906 186.261719 158.957031 182.464844 Z M 152.144531 190.691406 L 86.230469 256.605469 C 85.496094 257.339844 84.332031 257.339844 83.597656 256.605469 L 17.660156 190.691406 C 16.925781 189.957031 16.925781 188.792969 17.660156 188.058594 L 83.597656 122.117188 C 84.332031 121.386719 85.496094 121.386719 86.230469 122.117188 L 152.144531 188.035156 C 152.878906 188.765625 152.878906 189.933594 152.144531 190.664062 Z M 152.144531 190.691406 " fill-opacity="1" fill-rule="nonzero"/></g><path fill="#ffffff" d="M 15.074219 188.015625 L 83.535156 119.550781 C 83.71875 119.371094 83.925781 119.230469 84.160156 119.132812 C 84.394531 119.035156 84.640625 118.988281 84.898438 118.988281 C 85.152344 118.988281 85.398438 119.035156 85.632812 119.132812 C 85.867188 119.230469 86.078125 119.371094 86.257812 119.550781 L 154.71875 188.015625 C 154.902344 188.195312 155.039062 188.402344 155.136719 188.640625 C 155.234375 188.875 155.285156 189.121094 155.285156 189.375 C 155.285156 189.628906 155.234375 189.875 155.136719 190.109375 C 155.039062 190.347656 154.902344 190.554688 154.71875 190.734375 L 86.257812 259.199219 C 86.078125 259.378906 85.867188 259.519531 85.632812 259.617188 C 85.398438 259.714844 85.152344 259.761719 84.898438 259.761719 C 84.640625 259.761719 84.394531 259.714844 84.160156 259.617188 C 83.925781 259.519531 83.71875 259.378906 83.535156 259.199219 L 15.074219 190.734375 C 14.894531 190.554688 14.753906 190.347656 14.65625 190.109375 C 14.558594 189.875 14.511719 189.628906 14.511719 189.375 C 14.511719 189.121094 14.558594 188.875 14.65625 188.640625 C 14.753906 188.402344 14.894531 188.195312 15.074219 188.015625 Z M 15.074219 188.015625 " fill-opacity="1" fill-rule="nonzero"/><g clip-path="url(#b0d06a3c08)"><path stroke-linecap="butt" transform="matrix(1.789886, -1.789886, 1.789886, 1.789886, -23.802847, 189.374988)" fill="none" stroke-linejoin="miter" d="M 11.239944 10.480475 L 49.489811 10.479383 C 49.591292 10.480475 49.688409 10.499025 49.781161 10.537217 C 49.873913 10.575409 49.955754 10.63106 50.027773 10.70308 C 50.098701 10.774008 50.154352 10.855848 50.192544 10.9486 C 50.230736 11.041352 50.250378 11.13956 50.250378 11.23995 L 50.249287 49.489818 C 50.250378 49.591299 50.230736 49.687325 50.191453 49.781168 C 50.153261 49.87392 50.098701 49.956852 50.027773 50.02778 C 49.956845 50.098708 49.873913 50.153268 49.781161 50.19146 C 49.687318 50.230743 49.591292 50.250385 49.489811 50.249294 L 11.239944 50.250385 C 11.139553 50.250385 11.041345 50.230743 10.948593 50.192551 C 10.855841 50.154359 10.774001 50.098708 10.703073 50.02778 C 10.631053 49.955761 10.575402 49.87392 10.53721 49.781168 C 10.499018 49.688416 10.480468 49.591299 10.479376 49.489818 L 10.480468 11.23995 C 10.480468 11.13956 10.499018 11.042443 10.538301 10.9486 C 10.576493 10.855848 10.632145 10.774008 10.703073 10.70308 C 10.774001 10.632152 10.855841 10.5765 10.948593 10.538308 C 11.042436 10.499025 11.139553 10.480475 11.239944 10.480475 Z M 11.239944 10.480475 " stroke="#111111" stroke-width="1" stroke-opacity="1" stroke-miterlimit="10"/></g><path fill="#1ca5ea" d="M 111.695312 189.070312 C 109.242188 184.539062 108.203125 179.453125 108.988281 174.390625 C 107.746094 176.011719 106.609375 177.707031 105.621094 179.554688 C 104.152344 182.3125 103.167969 185.25 102.988281 188.386719 C 102.761719 192.4375 103.851562 196.109375 106.28125 199.347656 C 106.734375 199.929688 107.214844 200.460938 107.722656 200.96875 C 106.660156 196.5625 108.429688 192.03125 111.695312 189.046875 Z M 111.695312 189.070312 " fill-opacity="1" fill-rule="nonzero"/><path fill="#0058a8" d="M 119.316406 181.855469 C 117.441406 180.566406 115.796875 179.175781 114.808594 177.097656 C 113.59375 174.59375 113.367188 171.78125 113.796875 169.046875 C 113.796875 169 113.796875 168.949219 113.824219 168.898438 C 113.46875 169.226562 113.113281 169.554688 112.785156 169.910156 C 112.253906 171.175781 111.824219 172.492188 111.542969 173.859375 C 110.457031 179.046875 111.621094 184.210938 114.304688 188.71875 C 114.683594 189.351562 114.378906 189.984375 113.875 190.386719 C 109.847656 193.449219 108.558594 199.753906 112.027344 204.105469 C 113.011719 204.589844 114.023438 205.042969 115.113281 205.347656 C 117.417969 206.003906 119.746094 206.132812 122.074219 205.726562 C 123.871094 205.421875 125.515625 204.839844 127.085938 204.03125 C 127.566406 203.449219 128.023438 202.816406 128.378906 202.105469 C 130.78125 197.398438 128.378906 191.78125 125.617188 187.78125 C 123.898438 185.300781 121.796875 183.554688 119.339844 181.855469 Z M 119.316406 181.855469 " fill-opacity="1" fill-rule="nonzero"/><path fill="#1ca5ea" d="M 135.566406 192.894531 C 135.390625 193.804688 135.085938 194.714844 134.730469 195.628906 C 133.894531 197.675781 132.730469 199.449219 131.210938 200.992188 C 131.796875 198.84375 131.871094 196.511719 131.289062 194.183594 C 129.847656 188.4375 126.074219 183.527344 121.238281 180.210938 C 119.671875 179.148438 118.152344 178.109375 117.191406 176.414062 C 115.949219 174.210938 115.796875 171.503906 116.253906 169.046875 C 116.277344 168.921875 116.304688 168.796875 116.378906 168.644531 C 116.507812 168.136719 116.757812 167.480469 117.011719 166.769531 C 117.164062 166.390625 117.289062 166.011719 117.417969 165.605469 C 117.746094 165.328125 118.074219 165.050781 118.40625 164.796875 L 118.429688 164.796875 C 118.785156 164.492188 119.136719 164.1875 119.46875 163.910156 C 120.886719 165.152344 122.277344 166.289062 123.59375 167.503906 C 126.78125 170.515625 129.667969 173.78125 131.996094 177.503906 C 133.617188 180.058594 134.882812 182.769531 135.515625 185.753906 C 136.074219 188.160156 136.074219 190.539062 135.566406 192.894531 Z M 135.566406 192.894531 " fill-opacity="1" fill-rule="nonzero"/><path fill="#1ca5ea" d="M 60.566406 178.085938 C 61.652344 178.1875 62.386719 179.808594 61.171875 180.363281 C 59.171875 181.300781 56.96875 182.261719 55.402344 183.855469 C 53.628906 185.652344 52.238281 188.96875 54.515625 190.945312 C 56.792969 192.917969 58.566406 190.488281 60.363281 189.324219 C 61.730469 188.4375 63.296875 187.855469 64.917969 187.550781 C 66.261719 187.300781 67.578125 187.300781 68.867188 187.402344 C 68.792969 186.742188 68.714844 186.109375 68.589844 185.453125 C 67.929688 182.488281 66.664062 179.78125 65.070312 177.226562 C 62.742188 173.503906 59.855469 170.238281 56.640625 167.226562 C 55.324219 165.984375 53.933594 164.847656 52.515625 163.605469 C 51.199219 164.71875 49.90625 165.734375 48.71875 166.820312 C 44.746094 170.441406 41.226562 174.441406 38.695312 179.25 C 37.226562 182.007812 36.238281 184.945312 36.0625 188.085938 C 36.0625 188.234375 36.0625 188.414062 36.0625 188.566406 C 41.960938 181.476562 51.148438 177.25 60.566406 178.058594 Z M 60.566406 178.085938 " fill-opacity="1" fill-rule="nonzero"/><path fill="#0058a8" d="M 68.742188 189.804688 C 66.03125 189.628906 63.375 190.183594 61.148438 191.804688 C 59.804688 192.792969 58.589844 194.03125 56.84375 194.183594 C 53.222656 194.488281 50.589844 190.894531 50.945312 187.527344 C 51.273438 184.386719 53.273438 182.238281 55.703125 180.589844 C 47.933594 181.425781 40.71875 185.730469 36.367188 192.183594 C 36.820312 194.640625 37.785156 196.945312 39.351562 199.070312 C 41.605469 202.058594 44.542969 204.054688 48.160156 205.070312 C 50.464844 205.726562 52.792969 205.855469 55.121094 205.449219 C 57.882812 204.992188 60.386719 203.90625 62.613281 202.183594 C 64.945312 200.359375 66.691406 198.082031 67.777344 195.347656 C 68.511719 193.550781 68.867188 191.703125 68.941406 189.832031 C 68.867188 189.832031 68.816406 189.832031 68.742188 189.804688 Z M 68.742188 189.804688 " fill-opacity="1" fill-rule="nonzero"/><path fill="#0058a8" d="M 78.613281 219.117188 C 78.207031 218.636719 77.777344 218.15625 77.371094 217.699219 C 76.917969 217.195312 76.460938 216.410156 75.878906 216.054688 C 75.523438 215.828125 75.171875 216.03125 74.839844 216.257812 C 74.183594 216.710938 73.574219 217.296875 72.941406 217.800781 C 71.398438 219.042969 69.878906 220.308594 68.335938 221.546875 C 68.285156 221.902344 68.234375 222.257812 68.210938 222.609375 C 68.109375 224.128906 68.285156 225.574219 68.5625 226.988281 C 70.335938 225.597656 72.105469 224.230469 73.878906 222.839844 C 75.472656 221.597656 77.042969 220.359375 78.636719 219.117188 Z M 78.613281 219.117188 " fill-opacity="1" fill-rule="nonzero"/><path fill="#0058a8" d="M 95.269531 220.179688 C 94.914062 219.976562 94.636719 219.902344 94.355469 220.179688 C 93.976562 220.507812 93.648438 220.890625 93.320312 221.269531 C 94.003906 221.773438 94.660156 222.308594 95.34375 222.8125 C 97.167969 224.207031 98.964844 225.574219 100.785156 226.964844 C 100.9375 226.28125 101.039062 225.597656 101.089844 224.890625 C 99.773438 223.824219 98.484375 222.761719 97.167969 221.699219 C 96.558594 221.191406 95.953125 220.585938 95.269531 220.207031 Z M 95.269531 220.179688 " fill-opacity="1" fill-rule="nonzero"/><path fill="#0058a8" d="M 85.015625 218.15625 C 83.246094 217.675781 80.917969 220.410156 79.625 221.394531 C 77.675781 222.914062 75.726562 224.433594 73.753906 225.976562 C 72.257812 227.140625 70.765625 228.304688 69.273438 229.46875 C 69.828125 230.886719 70.511719 232.253906 71.472656 233.546875 C 73.726562 236.53125 76.664062 238.53125 80.285156 239.546875 C 82.585938 240.203125 84.914062 240.328125 87.246094 239.925781 C 90.003906 239.46875 92.507812 238.378906 94.738281 236.660156 C 97.066406 234.835938 98.8125 232.558594 99.902344 229.824219 C 99.953125 229.699219 99.976562 229.570312 100.027344 229.417969 C 98.535156 228.28125 97.039062 227.140625 95.574219 226.003906 C 93.597656 224.484375 91.597656 222.964844 89.625 221.445312 C 88.28125 220.410156 86.664062 218.585938 85.015625 218.105469 Z M 85.015625 218.15625 " fill-opacity="1" fill-rule="nonzero"/><path fill="#1ca5ea" d="M 72.613281 214.890625 C 73.90625 213.851562 75.523438 212.867188 77.121094 213.929688 C 77.828125 214.410156 78.359375 215.117188 78.917969 215.75 C 79.421875 216.308594 79.902344 216.863281 80.382812 217.445312 C 80.433594 217.496094 80.460938 217.574219 80.484375 217.625 C 81.648438 216.710938 82.664062 215.699219 84.207031 215.597656 C 86.054688 215.472656 87.246094 216.613281 88.609375 217.675781 C 89.523438 218.382812 90.433594 219.066406 91.34375 219.75 C 91.902344 219.09375 92.484375 218.410156 93.167969 217.953125 C 94.6875 216.964844 96.28125 217.851562 97.496094 218.839844 C 98.636719 219.777344 99.800781 220.710938 100.9375 221.625 C 100.863281 221.066406 100.8125 220.507812 100.683594 219.953125 C 100.027344 216.992188 98.761719 214.28125 97.167969 211.726562 C 94.839844 208.003906 91.953125 204.738281 88.738281 201.726562 C 87.421875 200.488281 86.03125 199.347656 84.613281 198.109375 C 83.296875 199.222656 82.003906 200.234375 80.816406 201.324219 C 76.839844 204.941406 73.324219 208.96875 70.792969 213.75 C 70.109375 215.042969 69.550781 216.359375 69.121094 217.699219 C 70.285156 216.761719 71.449219 215.828125 72.589844 214.863281 Z M 72.613281 214.890625 " fill-opacity="1" fill-rule="nonzero"/><path fill="#0058a8" d="M 100.863281 151.429688 C 100.585938 150.140625 100.152344 148.898438 99.671875 147.710938 C 99.722656 148.140625 99.773438 148.570312 99.773438 149.027344 C 99.773438 154.46875 96.078125 158.339844 91.167969 160.113281 C 89.21875 160.796875 87.117188 161.253906 85.042969 161.355469 C 82.082031 161.480469 79.347656 160.898438 76.460938 161.910156 C 74.589844 162.570312 72.917969 163.582031 71.472656 164.847656 C 71.523438 164.921875 71.550781 165 71.601562 165.074219 C 73.855469 168.0625 76.789062 170.0625 80.410156 171.074219 C 82.714844 171.730469 85.042969 171.859375 87.371094 171.453125 C 90.128906 170.996094 92.636719 169.910156 94.863281 168.1875 C 97.191406 166.367188 98.9375 164.085938 100.027344 161.355469 C 101.316406 158.140625 101.546875 154.847656 100.8125 151.480469 Z M 100.863281 151.429688 " fill-opacity="1" fill-rule="nonzero"/><path fill="#1ca5ea" d="M 78.335938 150.925781 C 81.320312 150.773438 84.28125 152.039062 87.21875 150.976562 C 88.789062 150.394531 90.535156 148.621094 89.675781 146.824219 C 89.292969 146.066406 88.359375 145.355469 87.523438 145.863281 C 86.941406 146.214844 86.761719 146.847656 87.015625 147.457031 C 87.597656 148.976562 85.167969 149.609375 84.585938 148.113281 C 83.878906 146.292969 84.964844 144.242188 86.6875 143.484375 C 88.660156 142.597656 90.863281 143.734375 91.824219 145.558594 C 93.851562 149.378906 90.179688 153.078125 86.585938 153.734375 C 83.042969 154.367188 79.625 152.949219 76.105469 153.761719 C 72.917969 154.492188 70.4375 156.46875 68.792969 159.023438 C 69.09375 160.289062 69.527344 161.503906 70.132812 162.671875 C 70.992188 161.960938 71.90625 161.304688 72.867188 160.746094 C 74.789062 159.683594 76.867188 158.921875 79.070312 158.722656 C 81.550781 158.492188 84.003906 159.050781 86.460938 158.671875 C 90.054688 158.113281 94.105469 156.746094 96.078125 153.457031 C 98.6875 149.027344 96.761719 142.773438 92.257812 140.421875 C 90.027344 139.253906 87.296875 138.976562 84.890625 139.835938 C 82.359375 140.75 80.03125 143.304688 80.816406 146.117188 C 81.246094 147.683594 78.816406 148.34375 78.386719 146.773438 C 77.523438 143.609375 79.144531 140.46875 81.726562 138.648438 C 84.179688 136.902344 87.394531 136.472656 90.308594 137.078125 C 91.597656 137.332031 92.789062 137.839844 93.875 138.496094 C 92.332031 136.625 90.660156 134.851562 88.890625 133.207031 C 87.574219 131.964844 86.179688 130.828125 84.765625 129.585938 C 83.449219 130.699219 82.15625 131.710938 80.96875 132.800781 C 76.992188 136.421875 73.472656 140.421875 70.941406 145.230469 C 69.476562 147.988281 68.488281 150.925781 68.308594 154.0625 C 68.285156 154.59375 68.308594 155.074219 68.335938 155.609375 C 70.890625 152.898438 74.335938 151.152344 78.308594 150.949219 Z M 78.335938 150.925781 " fill-opacity="1" fill-rule="nonzero"/><path fill="#2f89cc" d="M 44.792969 186.769531 C 40.871094 190.285156 38.769531 194.082031 37.734375 196.359375 C 37.074219 195.019531 36.644531 193.628906 36.367188 192.183594 C 40.71875 185.730469 47.933594 181.402344 55.703125 180.589844 C 53.25 181.351562 48.972656 183.019531 44.792969 186.769531 Z M 44.792969 186.769531 " fill-opacity="1" fill-rule="nonzero"/><path fill="#2f89cc" d="M 99.953125 153.40625 C 99.851562 153.785156 99.417969 155.304688 98.003906 157.277344 C 96.28125 159.683594 93.851562 161.429688 90.941406 162.59375 C 87.269531 164.035156 83.144531 164.1875 79.269531 164.519531 L 79.117188 164.519531 C 79.117188 164.519531 78.992188 164.542969 78.96875 164.542969 L 78.917969 164.542969 C 78.484375 164.617188 78.082031 164.695312 77.652344 164.769531 C 77.246094 164.847656 76.839844 164.949219 76.4375 165.074219 C 76.308594 165.101562 75.601562 165.351562 75.371094 165.402344 C 75.347656 165.402344 75.320312 165.429688 75.296875 165.429688 C 75.042969 165.554688 74.816406 165.683594 74.5625 165.808594 C 74.488281 165.808594 74.15625 166.085938 73.980469 166.1875 C 73.90625 166.238281 73.878906 166.265625 73.878906 166.265625 C 73.652344 166.441406 73.449219 166.644531 73.273438 166.847656 C 72.664062 166.289062 72.15625 165.683594 71.652344 165.023438 L 71.5 164.796875 C 72.941406 163.53125 74.613281 162.519531 76.488281 161.859375 C 79.371094 160.847656 82.105469 161.453125 85.042969 161.304688 C 87.117188 161.203125 89.242188 160.773438 91.167969 160.0625 C 96.105469 158.316406 99.773438 154.441406 99.800781 149 C 99.800781 148.546875 99.722656 148.113281 99.671875 147.683594 C 100.027344 148.722656 100.585938 150.875 99.953125 153.40625 Z M 99.953125 153.40625 " fill-opacity="1" fill-rule="nonzero"/><path fill="#2f89cc" d="M 114.429688 189.5 C 114.53125 188.996094 114.253906 188.488281 113.976562 188.160156 C 113.0625 186.617188 111.519531 183.578125 111.191406 179.453125 C 110.835938 175.023438 112.050781 171.578125 112.757812 169.910156 C 111.976562 173.378906 112.125 176.085938 112.378906 177.859375 C 112.582031 179.273438 112.785156 181.171875 113.773438 183.375 C 115.46875 187.222656 117.0625 187.78125 116.785156 189.527344 C 116.429688 191.628906 113.875 191.730469 112 194.386719 C 110.40625 196.664062 110.304688 199.375 110.507812 201.375 C 109.949219 199.753906 109.949219 198.4375 110.027344 197.652344 C 110.226562 195.347656 111.519531 191.90625 113.46875 190.691406 C 113.695312 190.539062 114.355469 190.160156 114.457031 189.5 Z M 114.429688 189.5 " fill-opacity="1" fill-rule="nonzero"/><path fill="#2f89cc" d="M 76.003906 216.128906 C 74.664062 216.964844 72.941406 218.230469 71.273438 220.054688 C 69.878906 221.546875 68.894531 223.015625 68.183594 224.230469 C 68.132812 223.574219 68.132812 222.863281 68.234375 222.078125 C 68.234375 221.902344 68.285156 221.726562 68.308594 221.546875 C 69.855469 220.308594 71.375 219.042969 72.917969 217.800781 C 73.222656 217.546875 73.703125 217.09375 74.816406 216.257812 C 75.195312 215.980469 75.421875 215.902344 75.652344 215.953125 C 75.804688 215.980469 75.90625 216.078125 75.980469 216.15625 Z M 76.003906 216.128906 " fill-opacity="1" fill-rule="nonzero"/><path fill="#2f89cc" d="M 75.144531 227.773438 C 73.625 229.621094 72.308594 231.417969 71.171875 233.140625 C 70.742188 232.535156 70.308594 231.800781 69.90625 230.964844 C 69.652344 230.433594 69.425781 229.953125 69.246094 229.46875 C 70.742188 228.304688 72.257812 227.140625 73.753906 225.976562 C 75.726562 224.457031 77.675781 222.914062 79.601562 221.394531 C 80.359375 220.6875 81.042969 220.105469 81.601562 219.625 C 82.636719 218.761719 83.449219 218.078125 84.511719 218.105469 C 84.714844 218.105469 84.890625 218.128906 85.015625 218.15625 C 81.929688 220.558594 78.484375 223.722656 75.144531 227.773438 Z M 75.144531 227.773438 " fill-opacity="1" fill-rule="nonzero"/><g transform="matrix(1, 0, 0, 1, 178, 107)"><g clip-path="url(#d5d2e76ecf)"><g fill="#ffffff" fill-opacity="1"><g transform="translate(1.708019, 74.855483)"><g><path d="M 16.734375 -17.484375 L 28.5 -17.484375 L 22.75 -35.75 L 22.625 -35.75 Z M 10.953125 0 L 0.78125 0 L 17.234375 -46.140625 L 28.375 -46.140625 L 44.625 0 L 34.15625 0 L 31.203125 -9.515625 L 14.15625 -9.515625 Z M 10.953125 0 "/></g></g></g><g fill="#ffffff" fill-opacity="1"><g transform="translate(47.123806, 74.855483)"><g><path d="M 14.34375 -8.34375 L 37.28125 -8.34375 L 37.28125 0 L 4.703125 0 L 4.703125 -46.140625 L 14.34375 -46.140625 Z M 14.34375 -8.34375 "/></g></g></g><g fill="#ffffff" fill-opacity="1"><g transform="translate(80.95774, 74.855483)"><g><path d="M 1 -46.140625 L 11.265625 -46.140625 L 17.828125 -16.703125 L 18.609375 -12.078125 L 18.734375 -12.078125 L 19.484375 -16.703125 L 25.171875 -46.140625 L 35.375 -46.140625 L 41.46875 -16.859375 L 42.28125 -12.078125 L 42.40625 -12.078125 L 43.21875 -16.859375 L 49.90625 -46.140625 L 59.703125 -46.140625 L 46.703125 0 L 37.4375 0 L 30.921875 -32.390625 L 30.3125 -36.3125 L 30.1875 -36.3125 L 29.59375 -32.390625 L 23.03125 0 L 14.0625 0 Z M 1 -46.140625 "/></g></g></g><g fill="#ffffff" fill-opacity="1"><g transform="translate(138.080276, 74.855483)"><g><path d="M 16.734375 -17.484375 L 28.5 -17.484375 L 22.75 -35.75 L 22.625 -35.75 Z M 10.953125 0 L 0.78125 0 L 17.234375 -46.140625 L 28.375 -46.140625 L 44.625 0 L 34.15625 0 L 31.203125 -9.515625 L 14.15625 -9.515625 Z M 10.953125 0 "/></g></g></g><g fill="#ffffff" fill-opacity="1"><g transform="translate(176.873056, 74.855483)"><g><path d="M 25.328125 0 L 15.6875 0 L 15.6875 -17.421875 L -0.25 -46.140625 L 11.109375 -46.140625 L 20.6875 -26.078125 L 29.8125 -46.140625 L 40.734375 -46.140625 L 25.328125 -17.296875 Z M 25.328125 0 "/></g></g></g><g fill="#ffffff" fill-opacity="1"><g transform="translate(215.69758, 74.855483)"><g><path d="M 11.921875 -14.21875 C 11.921875 -11.9375 12.765625 -10.117188 14.453125 -8.765625 C 16.140625 -7.421875 18.550781 -6.75 21.6875 -6.75 C 24.820312 -6.75 27.210938 -7.253906 28.859375 -8.265625 C 30.503906 -9.285156 31.328125 -10.78125 31.328125 -12.75 C 31.328125 -13.914062 30.898438 -14.925781 30.046875 -15.78125 C 29.203125 -16.644531 27.191406 -17.453125 24.015625 -18.203125 L 16.171875 -20.03125 C 11.203125 -21.195312 7.820312 -22.789062 6.03125 -24.8125 C 4.25 -26.832031 3.359375 -29.617188 3.359375 -33.171875 C 3.359375 -37.335938 4.835938 -40.742188 7.796875 -43.390625 C 10.753906 -46.035156 15.195312 -47.359375 21.125 -47.359375 C 27 -47.359375 31.457031 -45.875 34.5 -42.90625 C 37.550781 -39.9375 39.085938 -36.453125 39.109375 -32.453125 L 29.84375 -32.453125 C 29.632812 -34.710938 28.753906 -36.429688 27.203125 -37.609375 C 25.660156 -38.796875 23.394531 -39.390625 20.40625 -39.390625 C 18 -39.390625 16.054688 -38.890625 14.578125 -37.890625 C 13.097656 -36.898438 12.359375 -35.554688 12.359375 -33.859375 C 12.359375 -32.691406 12.679688 -31.71875 13.328125 -30.9375 C 13.984375 -30.164062 15.035156 -29.601562 16.484375 -29.25 L 28.8125 -26.203125 C 33.269531 -25.117188 36.34375 -23.554688 38.03125 -21.515625 C 39.726562 -19.472656 40.578125 -16.925781 40.578125 -13.875 C 40.578125 -8.851562 38.832031 -5.082031 35.34375 -2.5625 C 31.863281 -0.0390625 27.550781 1.21875 22.40625 1.21875 C 15.75 1.21875 10.796875 -0.195312 7.546875 -3.03125 C 4.296875 -5.863281 2.671875 -9.59375 2.671875 -14.21875 Z M 11.921875 -14.21875 "/></g></g></g><g fill="#ffffff" fill-opacity="1"><g transform="translate(258.790791, 74.855483)"><g><path d="M 14.34375 -8.34375 L 37.28125 -8.34375 L 37.28125 0 L 4.703125 0 L 4.703125 -46.140625 L 14.34375 -46.140625 Z M 14.34375 -8.34375 "/></g></g></g><g fill="#ffffff" fill-opacity="1"><g transform="translate(296.548312, 74.855483)"><g><path d="M 12.296875 -23.0625 C 12.296875 -17.707031 13.488281 -13.679688 15.875 -10.984375 C 18.257812 -8.285156 21.285156 -6.9375 24.953125 -6.9375 C 28.617188 -6.9375 31.601562 -8.328125 33.90625 -11.109375 C 36.21875 -13.890625 37.375 -17.875 37.375 -23.0625 C 37.375 -28.257812 36.226562 -32.25 33.9375 -35.03125 C 31.65625 -37.8125 28.617188 -39.203125 24.828125 -39.203125 C 21.035156 -39.203125 18 -37.816406 15.71875 -35.046875 C 13.4375 -32.273438 12.296875 -28.28125 12.296875 -23.0625 Z M 2.671875 -23.0625 C 2.671875 -30.976562 4.726562 -37.003906 8.84375 -41.140625 C 12.96875 -45.285156 18.273438 -47.359375 24.765625 -47.359375 C 31.253906 -47.359375 36.582031 -45.3125 40.75 -41.21875 C 44.925781 -37.132812 47.015625 -31.082031 47.015625 -23.0625 C 47.015625 -15.238281 44.960938 -9.234375 40.859375 -5.046875 C 36.765625 -0.867188 31.429688 1.21875 24.859375 1.21875 C 18.597656 1.21875 13.332031 -0.757812 9.0625 -4.71875 C 4.800781 -8.6875 2.671875 -14.800781 2.671875 -23.0625 Z M 2.671875 -23.0625 "/></g></g></g><g fill="#ffffff" fill-opacity="1"><g transform="translate(344.160963, 74.855483)"><g><path d="M 16.734375 -17.484375 L 28.5 -17.484375 L 22.75 -35.75 L 22.625 -35.75 Z M 10.953125 0 L 0.78125 0 L 17.234375 -46.140625 L 28.375 -46.140625 L 44.625 0 L 34.15625 0 L 31.203125 -9.515625 L 14.15625 -9.515625 Z M 10.953125 0 "/></g></g></g><g fill="#ffffff" fill-opacity="1"><g transform="translate(389.57675, 74.855483)"><g><path d="M 14.15625 -7.96875 L 23.546875 -7.96875 C 26.847656 -7.96875 29.421875 -9.347656 31.265625 -12.109375 C 33.109375 -14.878906 34.03125 -18.671875 34.03125 -23.484375 C 34.03125 -28.441406 33.179688 -32.132812 31.484375 -34.5625 C 29.785156 -36.988281 27.203125 -38.203125 23.734375 -38.203125 L 14.15625 -38.203125 Z M 4.703125 -46.140625 L 25.078125 -46.140625 C 31.316406 -46.140625 36.003906 -44.113281 39.140625 -40.0625 C 42.273438 -36.019531 43.84375 -30.722656 43.84375 -24.171875 C 43.84375 -16.929688 42.171875 -11.09375 38.828125 -6.65625 C 35.492188 -2.21875 30.785156 0 24.703125 0 L 4.703125 0 Z M 4.703125 -46.140625 "/></g></g></g><g fill="#ffffff" fill-opacity="1"><g transform="translate(436.248007, 74.855483)"><g><path d="M 14.34375 0 L 4.703125 0 L 4.703125 -46.140625 L 14.34375 -46.140625 Z M 14.34375 0 "/></g></g></g><g fill="#ffffff" fill-opacity="1"><g transform="translate(455.299391, 74.855483)"><g><path d="M 33.328125 -46.140625 L 42.3125 -46.140625 L 42.3125 0 L 32.671875 0 L 13.84375 -32.921875 L 13.71875 -32.921875 L 13.71875 0 L 4.703125 0 L 4.703125 -46.140625 L 14.875 -46.140625 L 33.203125 -14 L 33.328125 -14 Z M 33.328125 -46.140625 "/></g></g></g><g fill="#ffffff" fill-opacity="1"><g transform="translate(502.315873, 74.855483)"><g><path d="M 26.546875 -24.890625 L 45.828125 -24.890625 L 45.828125 0 L 39.390625 0 L 38.453125 -5.78125 C 34.890625 -1.113281 30.023438 1.21875 23.859375 1.21875 C 17.679688 1.21875 12.628906 -0.976562 8.703125 -5.375 C 4.785156 -9.78125 2.828125 -15.632812 2.828125 -22.9375 C 2.828125 -30.238281 4.84375 -36.132812 8.875 -40.625 C 12.914062 -45.113281 18.421875 -47.359375 25.390625 -47.359375 C 31.359375 -47.359375 36.117188 -45.859375 39.671875 -42.859375 C 43.234375 -39.859375 45.222656 -36.179688 45.640625 -31.828125 L 36.03125 -31.828125 C 35.445312 -34.128906 34.226562 -35.960938 32.375 -37.328125 C 30.519531 -38.703125 28.359375 -39.390625 25.890625 -39.390625 C 21.773438 -39.390625 18.539062 -37.914062 16.1875 -34.96875 C 13.832031 -32.019531 12.65625 -27.976562 12.65625 -22.84375 C 12.65625 -17.738281 13.785156 -13.8125 16.046875 -11.0625 C 18.316406 -8.3125 21.660156 -6.9375 26.078125 -6.9375 C 28.566406 -6.9375 30.847656 -7.738281 32.921875 -9.34375 C 34.992188 -10.957031 36.445312 -13.546875 37.28125 -17.109375 L 26.546875 -17.109375 Z M 26.546875 -24.890625 "/></g></g></g><g fill="#ffffff" fill-opacity="1"><g transform="translate(4.893978, 138.230236)"><g><path d="M 34.28125 -46.140625 L 41.28125 -46.140625 L 24.359375 0 L 17.796875 0 L 0.96875 -46.140625 L 7.90625 -46.140625 L 21.09375 -6.8125 L 21.21875 -6.8125 Z M 34.28125 -46.140625 "/></g></g></g><g fill="#ffffff" fill-opacity="1"><g transform="translate(52.510434, 138.230236)"><g><path d="M 39.265625 0 L 5.203125 0 L 5.203125 -46.140625 L 38.828125 -46.140625 L 38.828125 -40.609375 L 11.453125 -40.609375 L 11.453125 -26.484375 L 36.6875 -26.484375 L 36.6875 -20.96875 L 11.453125 -20.96875 L 11.453125 -5.53125 L 39.265625 -5.53125 Z M 39.265625 0 "/></g></g></g><g fill="#ffffff" fill-opacity="1"><g transform="translate(99.750257, 138.230236)"><g><path d="M 35.75 -46.140625 L 41.78125 -46.140625 L 41.78125 0 L 34.84375 0 L 11.296875 -37.28125 L 11.171875 -37.28125 L 11.171875 0 L 5.203125 0 L 5.203125 -46.140625 L 12.53125 -46.140625 L 35.625 -8.875 L 35.75 -8.875 Z M 35.75 -46.140625 "/></g></g></g><g fill="#ffffff" fill-opacity="1"><g transform="translate(152.200185, 138.230236)"><g><path d="M 16.328125 -40.609375 L 0.78125 -40.609375 L 0.78125 -46.140625 L 38.265625 -46.140625 L 38.265625 -40.609375 L 22.5625 -40.609375 L 22.5625 0 L 16.328125 0 Z M 16.328125 -40.609375 "/></g></g></g><g fill="#ffffff" fill-opacity="1"><g transform="translate(196.70941, 138.230236)"><g><path d="M 41.21875 -46.140625 L 41.21875 -16.203125 C 41.21875 -11.085938 39.597656 -6.90625 36.359375 -3.65625 C 33.128906 -0.40625 28.550781 1.21875 22.625 1.21875 C 17.101562 1.21875 12.765625 -0.28125 9.609375 -3.28125 C 6.460938 -6.28125 4.890625 -10.300781 4.890625 -15.34375 L 4.890625 -46.140625 L 11.046875 -46.140625 L 11.046875 -17.109375 C 11.046875 -12.859375 12.109375 -9.660156 14.234375 -7.515625 C 16.359375 -5.367188 19.195312 -4.296875 22.75 -4.296875 C 26.5625 -4.296875 29.539062 -5.367188 31.6875 -7.515625 C 33.832031 -9.660156 34.90625 -12.816406 34.90625 -16.984375 L 34.90625 -46.140625 Z M 41.21875 -46.140625 "/></g></g></g><g fill="#ffffff" fill-opacity="1"><g transform="translate(248.186366, 138.230236)"><g><path d="M 11.453125 -25.140625 L 25.890625 -25.140625 C 29.242188 -25.140625 31.644531 -25.820312 33.09375 -27.1875 C 34.550781 -28.5625 35.28125 -30.535156 35.28125 -33.109375 C 35.28125 -35.453125 34.648438 -37.316406 33.390625 -38.703125 C 32.140625 -40.097656 29.988281 -40.796875 26.9375 -40.796875 L 11.453125 -40.796875 Z M 11.453125 0 L 5.203125 0 L 5.203125 -46.140625 L 26.546875 -46.140625 C 31.515625 -46.140625 35.273438 -45.082031 37.828125 -42.96875 C 40.378906 -40.851562 41.65625 -37.773438 41.65625 -33.734375 C 41.65625 -31.078125 41.140625 -28.859375 40.109375 -27.078125 C 39.085938 -25.304688 37.476562 -23.84375 35.28125 -22.6875 C 37.164062 -22 38.523438 -21.03125 39.359375 -19.78125 C 40.191406 -18.539062 40.671875 -16.613281 40.796875 -14 L 41.21875 -5.40625 C 41.257812 -3.976562 41.484375 -2.972656 41.890625 -2.390625 C 42.296875 -1.816406 42.863281 -1.363281 43.59375 -1.03125 L 43.59375 0 L 35.875 0 C 35.476562 -1.144531 35.195312 -2.890625 35.03125 -5.234375 C 34.863281 -7.578125 34.78125 -9.691406 34.78125 -11.578125 C 34.78125 -12.523438 34.695312 -13.488281 34.53125 -14.46875 C 34.363281 -15.445312 33.992188 -16.332031 33.421875 -17.125 C 32.859375 -17.925781 32.03125 -18.570312 30.9375 -19.0625 C 29.851562 -19.5625 28.390625 -19.8125 26.546875 -19.8125 L 11.453125 -19.8125 Z M 11.453125 0 "/></g></g></g><g fill="#ffffff" fill-opacity="1"><g transform="translate(299.537776, 138.230236)"><g><path d="M 39.265625 0 L 5.203125 0 L 5.203125 -46.140625 L 38.828125 -46.140625 L 38.828125 -40.609375 L 11.453125 -40.609375 L 11.453125 -26.484375 L 36.6875 -26.484375 L 36.6875 -20.96875 L 11.453125 -20.96875 L 11.453125 -5.53125 L 39.265625 -5.53125 Z M 39.265625 0 "/></g></g></g><g fill="#ffffff" fill-opacity="1"><g transform="translate(346.777599, 138.230236)"><g><path d="M 32.390625 -32.640625 C 32.265625 -35.566406 31.171875 -37.863281 29.109375 -39.53125 C 27.046875 -41.195312 24.332031 -42.03125 20.96875 -42.03125 C 17.570312 -42.03125 14.960938 -41.332031 13.140625 -39.9375 C 11.328125 -38.550781 10.421875 -36.550781 10.421875 -33.9375 C 10.421875 -32.53125 10.816406 -31.320312 11.609375 -30.3125 C 12.410156 -29.3125 13.832031 -28.570312 15.875 -28.09375 L 29.0625 -25.078125 C 32.625 -24.304688 35.257812 -22.835938 36.96875 -20.671875 C 38.6875 -18.503906 39.546875 -15.863281 39.546875 -12.75 C 39.546875 -8.1875 37.867188 -4.71875 34.515625 -2.34375 C 31.171875 0.03125 26.820312 1.21875 21.46875 1.21875 C 17.382812 1.21875 14.164062 0.695312 11.8125 -0.34375 C 9.457031 -1.394531 7.367188 -3.054688 5.546875 -5.328125 C 3.734375 -7.609375 2.828125 -10.800781 2.828125 -14.90625 L 8.65625 -14.90625 C 8.65625 -11.476562 9.796875 -8.820312 12.078125 -6.9375 C 14.359375 -5.050781 17.46875 -4.109375 21.40625 -4.109375 C 25.21875 -4.109375 28.179688 -4.78125 30.296875 -6.125 C 32.421875 -7.476562 33.484375 -9.398438 33.484375 -11.890625 C 33.484375 -14.148438 32.847656 -15.835938 31.578125 -16.953125 C 30.316406 -18.078125 27.847656 -19.070312 24.171875 -19.9375 L 14.21875 -22.25 C 10.914062 -23.007812 8.445312 -24.320312 6.8125 -26.1875 C 5.175781 -28.0625 4.359375 -30.367188 4.359375 -33.109375 C 4.359375 -37.253906 5.753906 -40.664062 8.546875 -43.34375 C 11.347656 -46.019531 15.25 -47.359375 20.25 -47.359375 C 25.894531 -47.359375 30.25 -46.179688 33.3125 -43.828125 C 36.382812 -41.472656 38.035156 -37.742188 38.265625 -32.640625 Z M 32.390625 -32.640625 "/></g></g></g><g fill="#ffffff" fill-opacity="1"><g transform="translate(394.802076, 138.230236)"><g/></g></g><g fill="#ffffff" fill-opacity="1"><g transform="translate(415.95997, 138.230236)"><g><path d="M 11.359375 -5.53125 L 34.84375 -5.53125 L 34.84375 0 L 5.203125 0 L 5.203125 -46.140625 L 11.359375 -46.140625 Z M 11.359375 -5.53125 "/></g></g></g><g fill="#ffffff" fill-opacity="1"><g transform="translate(457.173691, 138.230236)"><g><path d="M 11.359375 -5.53125 L 34.84375 -5.53125 L 34.84375 0 L 5.203125 0 L 5.203125 -46.140625 L 11.359375 -46.140625 Z M 11.359375 -5.53125 "/></g></g></g><g fill="#ffffff" fill-opacity="1"><g transform="translate(497.414292, 138.230236)"><g><path d="M 37.28125 -32.265625 C 36.59375 -35.398438 35.144531 -37.78125 32.9375 -39.40625 C 30.726562 -41.03125 27.867188 -41.84375 24.359375 -41.84375 C 19.816406 -41.84375 16.164062 -40.191406 13.40625 -36.890625 C 10.644531 -33.597656 9.265625 -29.148438 9.265625 -23.546875 C 9.265625 -17.054688 10.570312 -12.222656 13.1875 -9.046875 C 15.800781 -5.878906 19.585938 -4.296875 24.546875 -4.296875 C 27.804688 -4.296875 30.613281 -5.378906 32.96875 -7.546875 C 35.320312 -9.710938 36.910156 -12.859375 37.734375 -16.984375 L 43.78125 -16.984375 C 42.96875 -11.054688 40.71875 -6.539062 37.03125 -3.4375 C 33.351562 -0.332031 28.878906 1.21875 23.609375 1.21875 C 17.304688 1.21875 12.265625 -0.941406 8.484375 -5.265625 C 4.710938 -9.597656 2.828125 -15.617188 2.828125 -23.328125 C 2.828125 -30.753906 4.796875 -36.613281 8.734375 -40.90625 C 12.679688 -45.207031 17.890625 -47.359375 24.359375 -47.359375 C 29.710938 -47.359375 34.050781 -45.976562 37.375 -43.21875 C 40.707031 -40.457031 42.6875 -36.804688 43.3125 -32.265625 Z M 37.28125 -32.265625 "/></g></g></g></g></g></svg>