<svg xmlns="http://www.w3.org/2000/svg" xmlns:xlink="http://www.w3.org/1999/xlink" width="500" zoomAndPan="magnify" viewBox="0 0 375 374.999991" height="500" preserveAspectRatio="xMidYMid meet" version="1.0"><defs><g/><clipPath id="3c3f061895"><path d="M 37.5 151.667969 L 109.5 151.667969 L 109.5 223.667969 L 37.5 223.667969 Z M 37.5 151.667969 " clip-rule="nonzero"/></clipPath><clipPath id="1e248965f8"><path d="M 37.5 151.667969 L 109.5 151.667969 L 109.5 223.667969 L 37.5 223.667969 Z M 37.5 151.667969 " clip-rule="nonzero"/></clipPath></defs><g clip-path="url(#3c3f061895)"><path fill="#1ca5ea" d="M 108.160156 184.433594 L 76.722656 153.007812 C 74.945312 151.230469 72.042969 151.230469 70.265625 153.007812 L 38.839844 184.433594 C 37.0625 186.210938 37.0625 189.117188 38.839844 190.894531 L 70.277344 222.328125 C 72.054688 224.109375 74.957031 224.109375 76.734375 222.328125 L 108.171875 190.894531 C 109.949219 189.117188 109.949219 186.210938 108.171875 184.433594 Z M 104.984375 188.285156 L 74.117188 219.152344 C 73.773438 219.496094 73.226562 219.496094 72.882812 219.152344 L 42.003906 188.285156 C 41.660156 187.941406 41.660156 187.398438 42.003906 187.054688 L 72.882812 156.175781 C 73.226562 155.832031 73.773438 155.832031 74.117188 156.175781 L 104.984375 187.042969 C 105.328125 187.386719 105.328125 187.929688 104.984375 188.273438 Z M 104.984375 188.285156 " fill-opacity="1" fill-rule="nonzero"/></g><path fill="#ffffff" d="M 40.792969 187.03125 L 72.855469 154.972656 C 73.03125 154.796875 73.242188 154.707031 73.492188 154.707031 C 73.738281 154.707031 73.953125 154.796875 74.128906 154.972656 L 106.1875 187.03125 C 106.363281 187.207031 106.453125 187.421875 106.453125 187.667969 C 106.453125 187.917969 106.363281 188.128906 106.1875 188.304688 L 74.128906 220.367188 C 73.953125 220.542969 73.738281 220.632812 73.492188 220.632812 C 73.242188 220.632812 73.03125 220.542969 72.855469 220.367188 L 40.792969 188.304688 C 40.617188 188.128906 40.53125 187.917969 40.53125 187.667969 C 40.53125 187.421875 40.617188 187.207031 40.792969 187.03125 Z M 40.792969 187.03125 " fill-opacity="1" fill-rule="nonzero"/><g clip-path="url(#1e248965f8)"><path stroke-linecap="butt" transform="matrix(0.83819, -0.83819, 0.83819, 0.83819, 22.587917, 187.669514)" fill="none" stroke-linejoin="miter" d="M 11.240473 10.478995 L 49.490189 10.481325 C 49.699904 10.481325 49.879327 10.55356 50.028458 10.702691 C 50.175259 10.849492 50.249824 11.031245 50.249824 11.24096 L 50.249824 49.488345 C 50.249824 49.698061 50.175259 49.879814 50.028458 50.026614 C 49.879327 50.175745 49.699904 50.24798 49.490189 50.24798 L 11.240473 50.250311 C 11.030758 50.250311 10.849005 50.175745 10.702205 50.028945 C 10.553074 49.879814 10.480839 49.700391 10.480839 49.490676 L 10.480839 11.23863 C 10.480839 11.028915 10.555404 10.851822 10.704535 10.702691 C 10.851335 10.55589 11.030758 10.478995 11.240473 10.478995 Z M 11.240473 10.478995 " stroke="#111111" stroke-width="1" stroke-opacity="1" stroke-miterlimit="10"/></g><path fill="#1ca5ea" d="M 86.042969 187.527344 C 84.890625 185.40625 84.40625 183.023438 84.773438 180.652344 C 84.191406 181.410156 83.660156 182.203125 83.195312 183.070312 C 82.507812 184.363281 82.046875 185.738281 81.964844 187.207031 C 81.855469 189.105469 82.367188 190.824219 83.503906 192.339844 C 83.71875 192.613281 83.941406 192.863281 84.179688 193.097656 C 83.683594 191.035156 84.511719 188.914062 86.042969 187.515625 Z M 86.042969 187.527344 " fill-opacity="1" fill-rule="nonzero"/><path fill="#0058a8" d="M 89.609375 184.148438 C 88.730469 183.542969 87.960938 182.890625 87.5 181.921875 C 86.929688 180.746094 86.824219 179.429688 87.023438 178.152344 C 87.023438 178.128906 87.023438 178.101562 87.035156 178.078125 C 86.871094 178.234375 86.707031 178.386719 86.550781 178.554688 C 86.300781 179.148438 86.101562 179.761719 85.96875 180.402344 C 85.460938 182.832031 86.003906 185.25 87.261719 187.359375 C 87.441406 187.65625 87.296875 187.953125 87.0625 188.144531 C 85.175781 189.578125 84.570312 192.53125 86.195312 194.570312 C 86.65625 194.792969 87.132812 195.007812 87.640625 195.148438 C 88.71875 195.457031 89.8125 195.515625 90.902344 195.328125 C 91.742188 195.183594 92.511719 194.914062 93.25 194.53125 C 93.472656 194.261719 93.6875 193.964844 93.851562 193.632812 C 94.980469 191.425781 93.851562 188.796875 92.5625 186.921875 C 91.753906 185.761719 90.769531 184.941406 89.621094 184.148438 Z M 89.609375 184.148438 " fill-opacity="1" fill-rule="nonzero"/><path fill="#1ca5ea" d="M 97.21875 189.316406 C 97.136719 189.742188 96.996094 190.171875 96.828125 190.597656 C 96.4375 191.558594 95.890625 192.386719 95.179688 193.109375 C 95.453125 192.101562 95.488281 191.011719 95.214844 189.921875 C 94.539062 187.230469 92.773438 184.929688 90.511719 183.378906 C 89.773438 182.878906 89.0625 182.394531 88.613281 181.601562 C 88.03125 180.570312 87.960938 179.300781 88.175781 178.152344 C 88.1875 178.089844 88.199219 178.03125 88.234375 177.960938 C 88.292969 177.722656 88.410156 177.414062 88.53125 177.085938 C 88.601562 176.90625 88.660156 176.726562 88.71875 176.539062 C 88.875 176.410156 89.027344 176.277344 89.183594 176.160156 L 89.195312 176.160156 C 89.359375 176.015625 89.527344 175.875 89.679688 175.746094 C 90.34375 176.324219 90.996094 176.859375 91.613281 177.429688 C 93.105469 178.839844 94.457031 180.367188 95.546875 182.109375 C 96.308594 183.308594 96.898438 184.574219 97.195312 185.972656 C 97.457031 187.101562 97.457031 188.214844 97.21875 189.316406 Z M 97.21875 189.316406 " fill-opacity="1" fill-rule="nonzero"/><path fill="#1ca5ea" d="M 62.097656 182.382812 C 62.605469 182.429688 62.949219 183.1875 62.382812 183.449219 C 61.445312 183.886719 60.414062 184.339844 59.679688 185.085938 C 58.847656 185.925781 58.195312 187.480469 59.261719 188.40625 C 60.332031 189.328125 61.160156 188.191406 62 187.644531 C 62.640625 187.230469 63.375 186.957031 64.136719 186.816406 C 64.765625 186.699219 65.378906 186.699219 65.984375 186.746094 C 65.949219 186.4375 65.914062 186.140625 65.855469 185.832031 C 65.546875 184.445312 64.953125 183.175781 64.207031 181.980469 C 63.117188 180.238281 61.765625 178.707031 60.257812 177.296875 C 59.644531 176.714844 58.992188 176.183594 58.328125 175.601562 C 57.710938 176.125 57.105469 176.597656 56.550781 177.109375 C 54.6875 178.804688 53.039062 180.675781 51.855469 182.929688 C 51.167969 184.21875 50.707031 185.59375 50.621094 187.066406 C 50.621094 187.136719 50.621094 187.21875 50.621094 187.289062 C 53.382812 183.972656 57.6875 181.992188 62.097656 182.371094 Z M 62.097656 182.382812 " fill-opacity="1" fill-rule="nonzero"/><path fill="#0058a8" d="M 65.925781 187.871094 C 64.65625 187.789062 63.414062 188.050781 62.371094 188.808594 C 61.742188 189.269531 61.171875 189.851562 60.355469 189.921875 C 58.660156 190.0625 57.425781 188.378906 57.59375 186.804688 C 57.746094 185.335938 58.683594 184.328125 59.820312 183.554688 C 56.179688 183.949219 52.804688 185.960938 50.765625 188.984375 C 50.976562 190.136719 51.429688 191.214844 52.164062 192.210938 C 53.21875 193.609375 54.59375 194.542969 56.289062 195.019531 C 57.367188 195.328125 58.457031 195.386719 59.546875 195.195312 C 60.839844 194.984375 62.011719 194.472656 63.058594 193.667969 C 64.148438 192.8125 64.964844 191.746094 65.476562 190.46875 C 65.820312 189.625 65.984375 188.761719 66.019531 187.882812 C 65.984375 187.882812 65.960938 187.882812 65.925781 187.871094 Z M 65.925781 187.871094 " fill-opacity="1" fill-rule="nonzero"/><path fill="#0058a8" d="M 70.546875 201.597656 C 70.359375 201.371094 70.15625 201.148438 69.96875 200.933594 C 69.753906 200.695312 69.539062 200.328125 69.269531 200.164062 C 69.101562 200.058594 68.9375 200.152344 68.78125 200.257812 C 68.472656 200.472656 68.191406 200.746094 67.894531 200.980469 C 67.171875 201.5625 66.457031 202.15625 65.734375 202.734375 C 65.710938 202.902344 65.6875 203.066406 65.675781 203.234375 C 65.628906 203.945312 65.710938 204.621094 65.84375 205.285156 C 66.671875 204.632812 67.503906 203.992188 68.332031 203.339844 C 69.078125 202.757812 69.8125 202.179688 70.558594 201.597656 Z M 70.546875 201.597656 " fill-opacity="1" fill-rule="nonzero"/><path fill="#0058a8" d="M 78.347656 202.09375 C 78.183594 202 78.050781 201.964844 77.921875 202.09375 C 77.742188 202.25 77.589844 202.425781 77.433594 202.605469 C 77.753906 202.84375 78.0625 203.089844 78.382812 203.328125 C 79.238281 203.980469 80.078125 204.621094 80.933594 205.273438 C 81.003906 204.953125 81.050781 204.632812 81.074219 204.300781 C 80.457031 203.800781 79.855469 203.304688 79.238281 202.808594 C 78.953125 202.570312 78.667969 202.285156 78.347656 202.109375 Z M 78.347656 202.09375 " fill-opacity="1" fill-rule="nonzero"/><path fill="#0058a8" d="M 73.546875 201.148438 C 72.71875 200.921875 71.628906 202.203125 71.023438 202.664062 C 70.109375 203.375 69.195312 204.085938 68.273438 204.808594 C 67.574219 205.355469 66.875 205.902344 66.175781 206.445312 C 66.433594 207.109375 66.753906 207.75 67.207031 208.355469 C 68.261719 209.753906 69.636719 210.691406 71.332031 211.164062 C 72.410156 211.472656 73.5 211.53125 74.589844 211.339844 C 75.882812 211.128906 77.054688 210.617188 78.097656 209.8125 C 79.191406 208.957031 80.007812 207.890625 80.515625 206.613281 C 80.542969 206.550781 80.554688 206.492188 80.578125 206.421875 C 79.878906 205.890625 79.179688 205.355469 78.492188 204.820312 C 77.566406 204.109375 76.628906 203.398438 75.703125 202.6875 C 75.078125 202.203125 74.316406 201.347656 73.546875 201.125 Z M 73.546875 201.148438 " fill-opacity="1" fill-rule="nonzero"/><path fill="#1ca5ea" d="M 67.738281 199.617188 C 68.34375 199.132812 69.101562 198.667969 69.847656 199.167969 C 70.179688 199.394531 70.429688 199.726562 70.691406 200.019531 C 70.925781 200.28125 71.152344 200.542969 71.378906 200.816406 C 71.402344 200.839844 71.414062 200.875 71.425781 200.898438 C 71.972656 200.472656 72.445312 199.996094 73.167969 199.949219 C 74.035156 199.890625 74.589844 200.425781 75.230469 200.921875 C 75.65625 201.253906 76.085938 201.574219 76.511719 201.894531 C 76.773438 201.585938 77.042969 201.265625 77.363281 201.050781 C 78.074219 200.589844 78.824219 201.003906 79.390625 201.46875 C 79.925781 201.90625 80.46875 202.34375 81.003906 202.769531 C 80.96875 202.511719 80.945312 202.25 80.886719 201.988281 C 80.578125 200.601562 79.984375 199.332031 79.238281 198.136719 C 78.148438 196.394531 76.796875 194.863281 75.289062 193.453125 C 74.671875 192.875 74.023438 192.339844 73.359375 191.757812 C 72.742188 192.28125 72.136719 192.753906 71.578125 193.265625 C 69.71875 194.960938 68.070312 196.84375 66.886719 199.085938 C 66.566406 199.6875 66.304688 200.304688 66.101562 200.933594 C 66.648438 200.496094 67.195312 200.058594 67.726562 199.605469 Z M 67.738281 199.617188 " fill-opacity="1" fill-rule="nonzero"/><path fill="#0058a8" d="M 80.96875 169.902344 C 80.835938 169.296875 80.636719 168.714844 80.410156 168.15625 C 80.433594 168.359375 80.457031 168.5625 80.457031 168.773438 C 80.457031 171.324219 78.726562 173.136719 76.429688 173.964844 C 75.515625 174.285156 74.53125 174.5 73.558594 174.546875 C 72.171875 174.605469 70.890625 174.335938 69.539062 174.808594 C 68.664062 175.117188 67.882812 175.589844 67.207031 176.183594 C 67.230469 176.21875 67.242188 176.253906 67.265625 176.289062 C 68.320312 177.6875 69.695312 178.625 71.390625 179.097656 C 72.46875 179.40625 73.558594 179.464844 74.648438 179.277344 C 75.941406 179.0625 77.117188 178.554688 78.160156 177.746094 C 79.25 176.894531 80.066406 175.828125 80.578125 174.546875 C 81.179688 173.042969 81.289062 171.5 80.945312 169.925781 Z M 80.96875 169.902344 " fill-opacity="1" fill-rule="nonzero"/><path fill="#1ca5ea" d="M 70.417969 169.664062 C 71.816406 169.59375 73.203125 170.183594 74.578125 169.6875 C 75.3125 169.414062 76.132812 168.585938 75.730469 167.742188 C 75.550781 167.386719 75.113281 167.054688 74.722656 167.292969 C 74.449219 167.457031 74.367188 167.753906 74.484375 168.039062 C 74.757812 168.75 73.617188 169.046875 73.347656 168.347656 C 73.015625 167.496094 73.523438 166.535156 74.328125 166.179688 C 75.253906 165.765625 76.285156 166.296875 76.734375 167.152344 C 77.683594 168.941406 75.964844 170.671875 74.28125 170.980469 C 72.621094 171.277344 71.023438 170.613281 69.375 170.992188 C 67.882812 171.335938 66.71875 172.257812 65.949219 173.457031 C 66.089844 174.050781 66.292969 174.617188 66.578125 175.164062 C 66.980469 174.832031 67.40625 174.523438 67.859375 174.261719 C 68.757812 173.765625 69.730469 173.410156 70.761719 173.316406 C 71.921875 173.207031 73.074219 173.46875 74.222656 173.289062 C 75.90625 173.03125 77.804688 172.390625 78.726562 170.847656 C 79.949219 168.773438 79.046875 165.847656 76.9375 164.746094 C 75.894531 164.199219 74.613281 164.070312 73.488281 164.472656 C 72.304688 164.898438 71.210938 166.09375 71.578125 167.410156 C 71.78125 168.144531 70.644531 168.453125 70.441406 167.71875 C 70.039062 166.238281 70.796875 164.769531 72.007812 163.914062 C 73.15625 163.097656 74.660156 162.894531 76.023438 163.179688 C 76.628906 163.296875 77.1875 163.535156 77.695312 163.84375 C 76.972656 162.964844 76.191406 162.136719 75.359375 161.367188 C 74.746094 160.785156 74.09375 160.25 73.429688 159.671875 C 72.8125 160.191406 72.207031 160.667969 71.652344 161.175781 C 69.789062 162.871094 68.140625 164.746094 66.957031 166.996094 C 66.269531 168.289062 65.808594 169.664062 65.722656 171.132812 C 65.710938 171.382812 65.722656 171.609375 65.734375 171.855469 C 66.933594 170.589844 68.546875 169.769531 70.40625 169.675781 Z M 70.417969 169.664062 " fill-opacity="1" fill-rule="nonzero"/><path fill="#2f89cc" d="M 54.710938 186.449219 C 52.875 188.097656 51.890625 189.875 51.40625 190.941406 C 51.097656 190.3125 50.894531 189.660156 50.765625 188.984375 C 52.804688 185.960938 56.179688 183.9375 59.820312 183.554688 C 58.671875 183.910156 56.667969 184.695312 54.710938 186.449219 Z M 54.710938 186.449219 " fill-opacity="1" fill-rule="nonzero"/><path fill="#2f89cc" d="M 80.542969 170.824219 C 80.492188 171.003906 80.292969 171.714844 79.628906 172.640625 C 78.824219 173.765625 77.683594 174.582031 76.320312 175.128906 C 74.601562 175.804688 72.671875 175.875 70.855469 176.027344 L 70.785156 176.027344 C 70.785156 176.027344 70.726562 176.039062 70.714844 176.039062 L 70.691406 176.039062 C 70.488281 176.078125 70.300781 176.113281 70.097656 176.148438 C 69.910156 176.183594 69.71875 176.230469 69.527344 176.289062 C 69.46875 176.300781 69.136719 176.421875 69.03125 176.445312 C 69.019531 176.445312 69.007812 176.457031 68.996094 176.457031 C 68.878906 176.515625 68.769531 176.574219 68.652344 176.632812 C 68.617188 176.632812 68.460938 176.765625 68.378906 176.8125 C 68.34375 176.835938 68.332031 176.847656 68.332031 176.847656 C 68.226562 176.929688 68.128906 177.023438 68.046875 177.121094 C 67.761719 176.859375 67.527344 176.574219 67.289062 176.265625 L 67.21875 176.160156 C 67.894531 175.566406 68.675781 175.09375 69.550781 174.785156 C 70.902344 174.308594 72.183594 174.59375 73.558594 174.523438 C 74.53125 174.476562 75.527344 174.273438 76.429688 173.941406 C 78.738281 173.125 80.457031 171.3125 80.46875 168.761719 C 80.46875 168.550781 80.433594 168.347656 80.410156 168.144531 C 80.578125 168.632812 80.835938 169.640625 80.542969 170.824219 Z M 80.542969 170.824219 " fill-opacity="1" fill-rule="nonzero"/><path fill="#2f89cc" d="M 87.320312 187.730469 C 87.367188 187.492188 87.238281 187.253906 87.109375 187.101562 C 86.679688 186.378906 85.957031 184.953125 85.804688 183.023438 C 85.636719 180.949219 86.207031 179.335938 86.539062 178.554688 C 86.171875 180.179688 86.242188 181.445312 86.363281 182.277344 C 86.457031 182.941406 86.550781 183.828125 87.011719 184.859375 C 87.808594 186.660156 88.554688 186.921875 88.425781 187.742188 C 88.257812 188.722656 87.0625 188.773438 86.183594 190.015625 C 85.4375 191.082031 85.390625 192.351562 85.484375 193.289062 C 85.222656 192.53125 85.222656 191.914062 85.257812 191.546875 C 85.355469 190.46875 85.957031 188.855469 86.871094 188.285156 C 86.976562 188.214844 87.285156 188.035156 87.332031 187.730469 Z M 87.320312 187.730469 " fill-opacity="1" fill-rule="nonzero"/><path fill="#2f89cc" d="M 69.328125 200.199219 C 68.699219 200.589844 67.894531 201.183594 67.109375 202.035156 C 66.457031 202.734375 65.996094 203.421875 65.664062 203.992188 C 65.640625 203.683594 65.640625 203.351562 65.6875 202.984375 C 65.6875 202.902344 65.710938 202.820312 65.722656 202.734375 C 66.445312 202.15625 67.160156 201.5625 67.882812 200.980469 C 68.023438 200.863281 68.25 200.648438 68.769531 200.257812 C 68.949219 200.128906 69.054688 200.09375 69.160156 200.117188 C 69.234375 200.128906 69.28125 200.175781 69.316406 200.210938 Z M 69.328125 200.199219 " fill-opacity="1" fill-rule="nonzero"/><path fill="#2f89cc" d="M 68.925781 205.652344 C 68.214844 206.515625 67.597656 207.359375 67.0625 208.164062 C 66.863281 207.878906 66.660156 207.535156 66.46875 207.144531 C 66.351562 206.894531 66.246094 206.671875 66.164062 206.445312 C 66.863281 205.902344 67.574219 205.355469 68.273438 204.808594 C 69.195312 204.097656 70.109375 203.375 71.011719 202.664062 C 71.367188 202.332031 71.6875 202.058594 71.945312 201.835938 C 72.433594 201.433594 72.8125 201.113281 73.308594 201.125 C 73.40625 201.125 73.488281 201.136719 73.546875 201.148438 C 72.101562 202.273438 70.488281 203.753906 68.925781 205.652344 Z M 68.925781 205.652344 " fill-opacity="1" fill-rule="nonzero"/><g fill="#ffffff" fill-opacity="1"><g transform="translate(116.192201, 188.727264)"><g><path d="M 0.546875 0 L 3.59375 -31.46875 L 14.25 -31.46875 L 17.25 0 L 11.28125 0 L 10.84375 -5.09375 L 7.03125 -5.09375 L 6.671875 0 Z M 7.515625 -10.109375 L 10.375 -10.109375 L 8.984375 -26.125 L 8.6875 -26.125 Z M 7.515625 -10.109375 "/></g></g></g><g fill="#ffffff" fill-opacity="1"><g transform="translate(133.959153, 188.727264)"><g><path d="M 1.390625 0 L 1.390625 -31.46875 L 7.6875 -31.46875 L 7.6875 -5.34375 L 14.1875 -5.34375 L 14.1875 0 Z M 1.390625 0 "/></g></g></g><g fill="#ffffff" fill-opacity="1"><g transform="translate(148.502406, 188.727264)"><g><path d="M 3.84375 0 L 0.46875 -31.46875 L 6.625 -31.46875 L 8.390625 -11.609375 L 10.15625 -31.46875 L 16.015625 -31.46875 L 17.703125 -11.609375 L 19.390625 -31.46875 L 25.609375 -31.46875 L 22.171875 0 L 14.625 0 L 13.046875 -15.171875 L 11.546875 0 Z M 3.84375 0 "/></g></g></g><g fill="#ffffff" fill-opacity="1"><g transform="translate(173.815637, 188.727264)"><g><path d="M 0.546875 0 L 3.59375 -31.46875 L 14.25 -31.46875 L 17.25 0 L 11.28125 0 L 10.84375 -5.09375 L 7.03125 -5.09375 L 6.671875 0 Z M 7.515625 -10.109375 L 10.375 -10.109375 L 8.984375 -26.125 L 8.6875 -26.125 Z M 7.515625 -10.109375 "/></g></g></g><g fill="#ffffff" fill-opacity="1"><g transform="translate(191.582589, 188.727264)"><g><path d="M 5.203125 0 L 5.203125 -10.375 L 0.1875 -31.46875 L 6.40625 -31.46875 L 8.171875 -20.8125 L 9.921875 -31.46875 L 16.15625 -31.46875 L 11.140625 -10.375 L 11.140625 0 Z M 5.203125 0 "/></g></g></g><g fill="#ffffff" fill-opacity="1"><g transform="translate(207.92086, 188.727264)"><g><path d="M 8.859375 0.296875 C 6.003906 0.296875 3.941406 -0.410156 2.671875 -1.828125 C 1.398438 -3.242188 0.765625 -5.53125 0.765625 -8.6875 L 0.765625 -11.765625 L 6.96875 -11.765625 L 6.96875 -7.84375 C 6.96875 -6.28125 7.46875 -5.5 8.46875 -5.5 C 9.03125 -5.5 9.421875 -5.660156 9.640625 -5.984375 C 9.859375 -6.316406 9.96875 -6.875 9.96875 -7.65625 C 9.96875 -8.6875 9.84375 -9.535156 9.59375 -10.203125 C 9.351562 -10.878906 9.039062 -11.441406 8.65625 -11.890625 C 8.28125 -12.335938 7.601562 -13.039062 6.625 -14 L 3.921875 -16.703125 C 1.816406 -18.753906 0.765625 -21.023438 0.765625 -23.515625 C 0.765625 -26.203125 1.378906 -28.25 2.609375 -29.65625 C 3.847656 -31.0625 5.65625 -31.765625 8.03125 -31.765625 C 10.863281 -31.765625 12.898438 -31.015625 14.140625 -29.515625 C 15.390625 -28.015625 16.015625 -25.660156 16.015625 -22.453125 L 9.59375 -22.453125 L 9.5625 -24.625 C 9.5625 -25.039062 9.441406 -25.367188 9.203125 -25.609375 C 8.972656 -25.859375 8.65625 -25.984375 8.25 -25.984375 C 7.757812 -25.984375 7.390625 -25.847656 7.140625 -25.578125 C 6.898438 -25.304688 6.78125 -24.9375 6.78125 -24.46875 C 6.78125 -23.445312 7.363281 -22.382812 8.53125 -21.28125 L 12.203125 -17.765625 C 13.054688 -16.941406 13.765625 -16.15625 14.328125 -15.40625 C 14.890625 -14.664062 15.335938 -13.785156 15.671875 -12.765625 C 16.015625 -11.753906 16.1875 -10.550781 16.1875 -9.15625 C 16.1875 -6.050781 15.617188 -3.695312 14.484375 -2.09375 C 13.347656 -0.5 11.472656 0.296875 8.859375 0.296875 Z M 8.859375 0.296875 "/></g></g></g><g fill="#ffffff" fill-opacity="1"><g transform="translate(224.808619, 188.727264)"><g><path d="M 1.390625 0 L 1.390625 -31.46875 L 7.6875 -31.46875 L 7.6875 -5.34375 L 14.1875 -5.34375 L 14.1875 0 Z M 1.390625 0 "/></g></g></g><g fill="#ffffff" fill-opacity="1"><g transform="translate(239.351873, 188.727264)"><g><path d="M 8.90625 0.296875 C 6.363281 0.296875 4.429688 -0.476562 3.109375 -2.03125 C 1.796875 -3.582031 1.140625 -5.765625 1.140625 -8.578125 L 1.140625 -23.5625 C 1.140625 -26.269531 1.796875 -28.3125 3.109375 -29.6875 C 4.429688 -31.070312 6.363281 -31.765625 8.90625 -31.765625 C 11.445312 -31.765625 13.375 -31.070312 14.6875 -29.6875 C 16.007812 -28.3125 16.671875 -26.269531 16.671875 -23.5625 L 16.671875 -8.578125 C 16.671875 -5.742188 16.007812 -3.554688 14.6875 -2.015625 C 13.375 -0.472656 11.445312 0.296875 8.90625 0.296875 Z M 8.90625 -5.5 C 9.46875 -5.5 9.84375 -5.742188 10.03125 -6.234375 C 10.226562 -6.722656 10.328125 -7.40625 10.328125 -8.28125 L 10.328125 -23.671875 C 10.328125 -24.359375 10.234375 -24.914062 10.046875 -25.34375 C 9.867188 -25.769531 9.5 -25.984375 8.9375 -25.984375 C 7.882812 -25.984375 7.359375 -25.1875 7.359375 -23.59375 L 7.359375 -8.25 C 7.359375 -7.34375 7.46875 -6.65625 7.6875 -6.1875 C 7.914062 -5.726562 8.320312 -5.5 8.90625 -5.5 Z M 8.90625 -5.5 "/></g></g></g><g fill="#ffffff" fill-opacity="1"><g transform="translate(257.155456, 188.727264)"><g><path d="M 0.546875 0 L 3.59375 -31.46875 L 14.25 -31.46875 L 17.25 0 L 11.28125 0 L 10.84375 -5.09375 L 7.03125 -5.09375 L 6.671875 0 Z M 7.515625 -10.109375 L 10.375 -10.109375 L 8.984375 -26.125 L 8.6875 -26.125 Z M 7.515625 -10.109375 "/></g></g></g><g fill="#ffffff" fill-opacity="1"><g transform="translate(274.922408, 188.727264)"><g><path d="M 1.390625 -31.46875 L 10.078125 -31.46875 C 12.328125 -31.46875 14.007812 -30.84375 15.125 -29.59375 C 16.25 -28.351562 16.828125 -26.515625 16.859375 -24.078125 L 16.921875 -9.34375 C 16.953125 -6.238281 16.414062 -3.90625 15.3125 -2.34375 C 14.21875 -0.78125 12.398438 0 9.859375 0 L 1.390625 0 Z M 8.828125 -5.5625 C 9.972656 -5.5625 10.546875 -6.125 10.546875 -7.25 L 10.546875 -23.484375 C 10.546875 -24.191406 10.488281 -24.722656 10.375 -25.078125 C 10.269531 -25.429688 10.070312 -25.671875 9.78125 -25.796875 C 9.488281 -25.921875 9.035156 -25.984375 8.421875 -25.984375 L 7.734375 -25.984375 L 7.734375 -5.5625 Z M 8.828125 -5.5625 "/></g></g></g><g fill="#ffffff" fill-opacity="1"><g transform="translate(292.982419, 188.727264)"><g><path d="M 1.09375 0 L 1.09375 -31.46875 L 7.1875 -31.46875 L 7.1875 0 Z M 1.09375 0 "/></g></g></g><g fill="#ffffff" fill-opacity="1"><g transform="translate(301.298085, 188.727264)"><g><path d="M 1.390625 0 L 1.390625 -31.46875 L 7.875 -31.46875 L 10.765625 -16.421875 L 10.765625 -31.46875 L 16.859375 -31.46875 L 16.859375 0 L 10.703125 0 L 7.546875 -15.75 L 7.546875 0 Z M 1.390625 0 "/></g></g></g><g fill="#ffffff" fill-opacity="1"><g transform="translate(319.54127, 188.727264)"><g><path d="M 7.875 0.296875 C 5.601562 0.296875 3.910156 -0.5 2.796875 -2.09375 C 1.691406 -3.695312 1.140625 -6.125 1.140625 -9.375 L 1.140625 -22.9375 C 1.140625 -25.84375 1.785156 -28.039062 3.078125 -29.53125 C 4.367188 -31.019531 6.296875 -31.765625 8.859375 -31.765625 C 10.941406 -31.765625 12.554688 -31.347656 13.703125 -30.515625 C 14.847656 -29.691406 15.640625 -28.484375 16.078125 -26.890625 C 16.523438 -25.304688 16.75 -23.269531 16.75 -20.78125 L 10.59375 -20.78125 L 10.59375 -23.59375 C 10.59375 -24.351562 10.488281 -24.941406 10.28125 -25.359375 C 10.070312 -25.773438 9.695312 -25.984375 9.15625 -25.984375 C 7.957031 -25.984375 7.359375 -25.203125 7.359375 -23.640625 L 7.359375 -8.390625 C 7.359375 -7.441406 7.476562 -6.722656 7.71875 -6.234375 C 7.96875 -5.742188 8.398438 -5.5 9.015625 -5.5 C 9.617188 -5.5 10.039062 -5.742188 10.28125 -6.234375 C 10.53125 -6.722656 10.65625 -7.441406 10.65625 -8.390625 L 10.65625 -12.890625 L 8.984375 -12.890625 L 8.984375 -18.328125 L 16.671875 -18.328125 L 16.671875 0 L 14.140625 0 L 13.078125 -2.640625 C 11.953125 -0.679688 10.21875 0.296875 7.875 0.296875 Z M 7.875 0.296875 "/></g></g></g><g fill="#ffffff" fill-opacity="1"><g transform="translate(118.887514, 216.477262)"><g><path d="M 11.515625 0 L 8.25 0 L 0.90625 -21.15625 L 3.5625 -21.15625 L 9.765625 -3.109375 L 10.125 -3.109375 L 16.265625 -21.15625 L 18.875 -21.15625 Z M 11.515625 0 "/></g></g></g><g fill="#ffffff" fill-opacity="1"><g transform="translate(138.654972, 216.477262)"><g><path d="M 5.6875 -9.96875 L 5.6875 -2.0625 L 16.46875 -2.0625 L 16.46875 0 L 3.203125 0 L 3.203125 -21.15625 L 16.234375 -21.15625 L 16.234375 -19.109375 L 5.6875 -19.109375 L 5.6875 -12.03125 L 15 -12.03125 L 15 -9.96875 Z M 5.6875 -9.96875 "/></g></g></g><g fill="#ffffff" fill-opacity="1"><g transform="translate(156.526728, 216.477262)"><g><path d="M 5.625 0 L 3.203125 0 L 3.203125 -21.15625 L 6.25 -21.15625 L 16.578125 -5 L 16.9375 -5.046875 L 16.9375 -21.15625 L 19.34375 -21.15625 L 19.34375 0 L 16.75 0 L 5.984375 -17.296875 L 5.625 -17.234375 Z M 5.625 0 "/></g></g></g><g fill="#ffffff" fill-opacity="1"><g transform="translate(179.087106, 216.477262)"><g><path d="M 16.515625 -21.15625 L 16.515625 -19.046875 L 9.890625 -19.046875 L 9.890625 0 L 7.40625 0 L 7.40625 -19.046875 L 0.78125 -19.046875 L 0.78125 -21.15625 Z M 16.515625 -21.15625 "/></g></g></g><g fill="#ffffff" fill-opacity="1"><g transform="translate(196.365543, 216.477262)"><g><path d="M 10.90625 0.296875 C 8.3125 0.296875 6.347656 -0.359375 5.015625 -1.671875 C 3.691406 -2.984375 3.03125 -4.9375 3.03125 -7.53125 L 3.03125 -21.15625 L 5.5 -21.15625 L 5.5 -7.5625 C 5.5 -5.707031 5.941406 -4.316406 6.828125 -3.390625 C 7.722656 -2.460938 9.082031 -2 10.90625 -2 C 14.519531 -2 16.328125 -3.851562 16.328125 -7.5625 L 16.328125 -21.15625 L 18.796875 -21.15625 L 18.796875 -7.53125 C 18.796875 -4.9375 18.128906 -2.984375 16.796875 -1.671875 C 15.472656 -0.359375 13.507812 0.296875 10.90625 0.296875 Z M 10.90625 0.296875 "/></g></g></g><g fill="#ffffff" fill-opacity="1"><g transform="translate(218.173426, 216.477262)"><g><path d="M 3.203125 0 L 3.203125 -21.15625 L 10.890625 -21.15625 C 12.304688 -21.15625 13.492188 -20.921875 14.453125 -20.453125 C 15.421875 -19.984375 16.144531 -19.320312 16.625 -18.46875 C 17.113281 -17.613281 17.359375 -16.601562 17.359375 -15.4375 C 17.359375 -14.125 17.03125 -13.039062 16.375 -12.1875 C 15.71875 -11.332031 14.691406 -10.695312 13.296875 -10.28125 L 13.296875 -9.96875 C 13.984375 -9.695312 14.539062 -9.269531 14.96875 -8.6875 C 15.40625 -8.113281 15.8125 -7.253906 16.1875 -6.109375 L 18.140625 0 L 15.578125 0 L 13.453125 -6.46875 C 13.203125 -7.226562 12.910156 -7.828125 12.578125 -8.265625 C 12.253906 -8.703125 11.84375 -9.015625 11.34375 -9.203125 C 10.84375 -9.398438 10.207031 -9.5 9.4375 -9.5 L 5.6875 -9.5 L 5.6875 0 Z M 10.828125 -11.609375 C 12.148438 -11.609375 13.132812 -11.914062 13.78125 -12.53125 C 14.425781 -13.144531 14.75 -14.078125 14.75 -15.328125 C 14.75 -16.578125 14.425781 -17.507812 13.78125 -18.125 C 13.132812 -18.738281 12.148438 -19.046875 10.828125 -19.046875 L 5.6875 -19.046875 L 5.6875 -11.609375 Z M 10.828125 -11.609375 "/></g></g></g><g fill="#ffffff" fill-opacity="1"><g transform="translate(237.767232, 216.477262)"><g><path d="M 5.6875 -9.96875 L 5.6875 -2.0625 L 16.46875 -2.0625 L 16.46875 0 L 3.203125 0 L 3.203125 -21.15625 L 16.234375 -21.15625 L 16.234375 -19.109375 L 5.6875 -19.109375 L 5.6875 -12.03125 L 15 -12.03125 L 15 -9.96875 Z M 5.6875 -9.96875 "/></g></g></g><g fill="#ffffff" fill-opacity="1"><g transform="translate(255.638988, 216.477262)"><g><path d="M 9.25 0.296875 C 7.914062 0.296875 6.71875 0.117188 5.65625 -0.234375 C 4.601562 -0.597656 3.722656 -1.070312 3.015625 -1.65625 C 2.316406 -2.25 1.796875 -2.898438 1.453125 -3.609375 L 2.8125 -5.25 L 3.171875 -5.25 C 4.484375 -3.039062 6.507812 -1.9375 9.25 -1.9375 C 10.84375 -1.9375 12.023438 -2.269531 12.796875 -2.9375 C 13.578125 -3.601562 13.96875 -4.53125 13.96875 -5.71875 C 13.96875 -6.414062 13.835938 -7.003906 13.578125 -7.484375 C 13.328125 -7.960938 12.90625 -8.375 12.3125 -8.71875 C 11.726562 -9.0625 10.925781 -9.359375 9.90625 -9.609375 L 7.4375 -10.21875 C 5.59375 -10.664062 4.234375 -11.375 3.359375 -12.34375 C 2.492188 -13.3125 2.0625 -14.535156 2.0625 -16.015625 C 2.0625 -17.066406 2.328125 -18.003906 2.859375 -18.828125 C 3.398438 -19.660156 4.191406 -20.304688 5.234375 -20.765625 C 6.273438 -21.234375 7.519531 -21.46875 8.96875 -21.46875 C 10.5625 -21.46875 11.90625 -21.242188 13 -20.796875 C 14.09375 -20.347656 14.96875 -19.671875 15.625 -18.765625 L 14.421875 -17.140625 L 14.046875 -17.140625 C 13.441406 -17.878906 12.722656 -18.421875 11.890625 -18.765625 C 11.066406 -19.117188 10.09375 -19.296875 8.96875 -19.296875 C 7.5 -19.296875 6.390625 -19.007812 5.640625 -18.4375 C 4.898438 -17.863281 4.53125 -17.078125 4.53125 -16.078125 C 4.53125 -15.117188 4.804688 -14.359375 5.359375 -13.796875 C 5.910156 -13.234375 6.835938 -12.796875 8.140625 -12.484375 L 10.671875 -11.875 C 12.722656 -11.394531 14.207031 -10.65625 15.125 -9.65625 C 16.050781 -8.65625 16.515625 -7.378906 16.515625 -5.828125 C 16.515625 -4.628906 16.242188 -3.570312 15.703125 -2.65625 C 15.171875 -1.738281 14.359375 -1.015625 13.265625 -0.484375 C 12.179688 0.0351562 10.84375 0.296875 9.25 0.296875 Z M 9.25 0.296875 "/></g></g></g><g fill="#ffffff" fill-opacity="1"><g transform="translate(273.771223, 216.477262)"><g/></g></g><g fill="#ffffff" fill-opacity="1"><g transform="translate(281.035692, 216.477262)"><g><path d="M 5.6875 -21.15625 L 5.6875 -2.0625 L 15.875 -2.0625 L 15.875 0 L 3.203125 0 L 3.203125 -21.15625 Z M 5.6875 -21.15625 "/></g></g></g><g fill="#ffffff" fill-opacity="1"><g transform="translate(297.807648, 216.477262)"><g><path d="M 5.6875 -21.15625 L 5.6875 -2.0625 L 15.875 -2.0625 L 15.875 0 L 3.203125 0 L 3.203125 -21.15625 Z M 5.6875 -21.15625 "/></g></g></g><g fill="#ffffff" fill-opacity="1"><g transform="translate(313.85596, 216.477262)"><g><path d="M 11.6875 0.296875 C 9.84375 0.296875 8.195312 -0.125 6.75 -0.96875 C 5.300781 -1.820312 4.164062 -3.066406 3.34375 -4.703125 C 2.519531 -6.335938 2.109375 -8.296875 2.109375 -10.578125 C 2.109375 -12.867188 2.519531 -14.832031 3.34375 -16.46875 C 4.164062 -18.101562 5.300781 -19.34375 6.75 -20.1875 C 8.195312 -21.039062 9.84375 -21.46875 11.6875 -21.46875 C 13.664062 -21.46875 15.3125 -21.09375 16.625 -20.34375 C 17.9375 -19.59375 18.882812 -18.46875 19.46875 -16.96875 L 17.875 -15.90625 L 17.515625 -15.90625 C 16.929688 -17.113281 16.175781 -17.96875 15.25 -18.46875 C 14.320312 -18.976562 13.132812 -19.234375 11.6875 -19.234375 C 10.363281 -19.234375 9.179688 -18.9375 8.140625 -18.34375 C 7.109375 -17.75 6.289062 -16.804688 5.6875 -15.515625 C 5.082031 -14.234375 4.78125 -12.585938 4.78125 -10.578125 C 4.78125 -8.566406 5.082031 -6.921875 5.6875 -5.640625 C 6.289062 -4.359375 7.109375 -3.421875 8.140625 -2.828125 C 9.179688 -2.234375 10.363281 -1.9375 11.6875 -1.9375 C 13.226562 -1.9375 14.484375 -2.28125 15.453125 -2.96875 C 16.429688 -3.664062 17.15625 -4.785156 17.625 -6.328125 L 17.984375 -6.328125 L 19.65625 -5.5 C 19.15625 -3.625 18.222656 -2.1875 16.859375 -1.1875 C 15.503906 -0.195312 13.78125 0.296875 11.6875 0.296875 Z M 11.6875 0.296875 "/></g></g></g></svg>